<?xml version="1.0" encoding="UTF-8"?>
<svg id="Capa_2" data-name="Capa 2" xmlns="http://www.w3.org/2000/svg" viewBox="0 0 71.29 88.32">
  <defs>
    <style>
      .cls-1 {
        fill: #00b0bf;
        stroke-width: 0px;
      }
    </style>
  </defs>
  <g id="Capa_1-2" data-name="Capa 1">
    <g>
      <path class="cls-1" d="m23.02,88.32h4.1c24.35,0,44.16-19.81,44.16-44.16S51.79.31,27.7,0v8.21c19.56.31,35.38,16.32,35.38,35.95,0,18.09-12.39,33.15-31.2,35.64l-.65.09v-17.19c-.81.13-2.27.31-4.26.31-1.72,0-3.15-.18-3.95-.32v25.63Z"/>
      <path class="cls-1" d="m27.07,17.23C12.14,17.23,0,29.38,0,44.3c0,10.52,6.09,20.04,15.58,24.5v-9.56c-4.62-3.56-7.37-9.13-7.37-14.95,0-10.4,8.46-18.86,18.86-18.86s18.86,8.46,18.86,18.86c0,5.76-2.65,11.19-7.14,14.76v9.63c9.38-4.5,15.35-13.9,15.35-24.39,0-14.93-12.14-27.07-27.07-27.07Z"/>
      <path class="cls-1" d="m27.1,34.53c-5.39,0-9.77,4.38-9.77,9.77s4.38,9.77,9.77,9.77,9.77-4.38,9.77-9.77-4.38-9.77-9.77-9.77Z"/>
    </g>
  </g>
</svg>