<?xml version="1.0" encoding="UTF-8"?>
<svg id="Capa_2" data-name="Capa 2" xmlns="http://www.w3.org/2000/svg" viewBox="0 0 92.04 92.04">
  <defs>
    <style>
      .cls-1 {
        fill: #fff;
      }

      .cls-1, .cls-2 {
        stroke-width: 0px;
      }

      .cls-2 {
        fill: #00b1c0;
      }
    </style>
  </defs>
  <g id="_1" data-name="1">
    <g>
      <rect class="cls-2" x="0" y="0" width="92.04" height="92.04" rx="12.77" ry="12.77"/>
      <g>
        <path class="cls-1" d="m36.76,80.17h3.18c18.86,0,34.21-15.35,34.21-34.21S59.04,11.99,40.39,11.76v6.36c15.15.24,27.4,12.64,27.4,27.85,0,14.02-9.6,25.67-24.17,27.61l-.5.07v-13.31c-.62.1-1.76.24-3.3.24-1.34,0-2.44-.14-3.06-.24v19.85Z"/>
        <path class="cls-1" d="m39.9,25.1c-11.56,0-20.97,9.41-20.97,20.97,0,8.15,4.71,15.52,12.07,18.98v-7.4c-3.58-2.76-5.71-7.07-5.71-11.58,0-8.06,6.55-14.61,14.61-14.61s14.61,6.55,14.61,14.61c0,4.46-2.05,8.67-5.53,11.43v7.46c7.26-3.49,11.89-10.76,11.89-18.89,0-11.56-9.41-20.97-20.97-20.97Z"/>
        <path class="cls-1" d="m39.92,38.5c-4.17,0-7.57,3.4-7.57,7.57s3.4,7.57,7.57,7.57,7.57-3.4,7.57-7.57-3.4-7.57-7.57-7.57Z"/>
      </g>
    </g>
  </g>
</svg>