<?xml version="1.0" encoding="UTF-8"?>
<svg id="Capa_2" data-name="Capa 2" xmlns="http://www.w3.org/2000/svg" viewBox="0 0 92.04 92.04">
  <defs>
    <style>
      .cls-1 {
        stroke: #00b1c0;
        stroke-miterlimit: 10;
        stroke-width: 3px;
      }

      .cls-1, .cls-2 {
        fill: #fff;
      }

      .cls-2, .cls-3 {
        stroke-width: 0px;
      }

      .cls-3 {
        fill: #00b1c0;
      }
    </style>
  </defs>
  <g id="Capa_1-2" data-name="Capa 1">
    <g>
      <rect class="cls-3" width="92.04" height="92.04" rx="12.77" ry="12.77"/>
      <g>
        <g>
          <path class="cls-2" d="m56.14,75.37c-7.49-.01-14.98-.01-22.47,0-1.58,0-2.86,1.06-3.23,2.6-.31,1.28.14,1.88,1.45,1.88,4.32,0,8.63,0,12.95,0s8.77,0,13.16,0c1.18,0,1.65-.59,1.42-1.74-.33-1.6-1.64-2.73-3.27-2.73Z"/>
          <path class="cls-2" d="m50.48,68.65c-3.71-.01-7.41-.01-11.12,0-.2,0-.51.09-.58.23-.72,1.37-1.4,2.77-2.12,4.22h16.51c-.73-1.46-1.4-2.84-2.11-4.19-.08-.15-.37-.25-.57-.25Z"/>
          <g>
            <path class="cls-3" d="m65.83,31.11c-.11-.03-.22-.06-.34-.08-.02.02-.06.05-.08.06-.07.06.15.05.42.01Z"/>
            <path class="cls-2" d="m77.38,61.99c0-10,.01-23.85,0-33.84,0-1.83-1.49-3.25-3.34-3.27-.34,0-.61,0-.85,0,.03-.03.08-.07.1-.09h-16.99c-12.07,0-27.99.09-40.05.09-2.53,0-3.84,1.31-3.84,3.83,0,9.64,0,23.14,0,32.78v.98s0,.04,0,.04v.49c0,3.61,1.3,5.43,3.89,5.43,19.06,0,38.12,0,57.18,0,.26,0,.51.01.77-.01,1.67-.15,3.05-2.05,3.13-4.39.05-1.61.01-.33.01-2.02Z"/>
          </g>
        </g>
        <rect class="cls-1" x="19.41" y="15.59" width="51" height="43" rx="2.56" ry="2.56"/>
        <path class="cls-3" d="m43.98,51.04c-.78,0-1.55,0-2.33,0-.89,0-1.39-.51-1.4-1.4,0-.63.03-1.27-.05-1.89-.23-1.78-2.15-2.72-3.72-1.84-.45.26-.9.52-1.35.78-.74.42-1.44.25-1.87-.48-.82-1.4-1.63-2.81-2.44-4.22-.4-.69-.2-1.4.49-1.81.47-.28.95-.54,1.42-.82,1.65-1,1.65-3.31,0-4.31-.47-.28-.95-.54-1.42-.82-.69-.41-.89-1.12-.49-1.81.8-1.4,1.61-2.8,2.42-4.19.44-.75,1.14-.93,1.89-.5.42.24.84.48,1.26.73,1.79,1.04,3.85-.14,3.86-2.22,0-.51,0-1.02,0-1.53,0-.78.48-1.31,1.25-1.32,1.68-.02,3.35-.02,5.03,0,.77.01,1.24.55,1.25,1.32.01.7-.04,1.42.08,2.1.27,1.65,2.12,2.53,3.6,1.74.48-.26.95-.54,1.42-.82.78-.45,1.47-.28,1.92.49.81,1.39,1.62,2.79,2.42,4.19.4.69.2,1.4-.49,1.81-.46.27-.93.53-1.39.8-1.69,1.01-1.69,3.34,0,4.36.47.28.95.54,1.42.82.67.4.85,1.11.46,1.79-.81,1.42-1.63,2.84-2.46,4.25-.39.68-1.09.86-1.78.48-.48-.26-.94-.55-1.42-.82-1.69-.95-3.72.22-3.77,2.15-.01.55,0,1.09,0,1.64,0,.8-.51,1.32-1.32,1.33-.83.01-1.65,0-2.48,0Zm5.05-13.83c0-2.78-2.24-5.03-5.01-5.03-2.78,0-5.02,2.25-5.02,5.02,0,2.77,2.24,5.03,5.02,5.03,2.77,0,5.02-2.24,5.02-5.02Z"/>
      </g>
    </g>
  </g>
</svg>