<?xml version="1.0" encoding="UTF-8"?>
<svg id="Capa_2" data-name="Capa 2" xmlns="http://www.w3.org/2000/svg" viewBox="0 0 84 85.59">
  <defs>
    <style>
      .cls-1 {
        fill: #fff;
      }

      .cls-1, .cls-2 {
        stroke-width: 0px;
      }

      .cls-3 {
        stroke: #fff;
        stroke-miterlimit: 10;
        stroke-width: 5.1px;
      }

      .cls-3, .cls-2 {
        fill: #00b1c0;
      }
    </style>
  </defs>
  <g id="Capa_1-2" data-name="Capa 1">
    <g>
      <g>
        <path class="cls-2" d="m56.52,79.81c-9.68-.02-19.36-.02-29.04,0-2.04,0-3.69,1.37-4.18,3.36-.4,1.65.19,2.43,1.87,2.43,5.58,0,11.16,0,16.74,0s11.34,0,17.01,0c1.53,0,2.14-.76,1.83-2.25-.43-2.07-2.12-3.53-4.22-3.53Z"/>
        <path class="cls-2" d="m49.2,69.88c-4.79-.02-9.58-.02-14.37,0-.26,0-.66.14-.75.36-.93,2.16-1.81,4.35-2.74,6.63h21.33c-.94-2.3-1.81-4.46-2.73-6.59-.1-.23-.48-.4-.73-.4Z"/>
        <g>
          <path class="cls-2" d="m69.04,22.6c-.15-.03-.29-.08-.44-.1-.03.03-.08.06-.1.08-.09.08.2.06.54.02Z"/>
          <path class="cls-2" d="m83.98,62.52c0-12.92.02-30.82,0-43.74,0-2.36-1.93-4.2-4.31-4.22-.44,0-.79,0-1.09,0,.04-.04.1-.09.13-.12h-21.96c-15.6,0-36.18.12-51.77.12C1.7,14.54,0,16.23,0,19.49c0,12.46,0,29.9,0,42.36v1.27s0,.05,0,.05v.63c0,4.66,1.69,7.01,5.02,7.01,24.64,0,49.27,0,73.9,0,.33,0,.66.01.99-.02,2.16-.19,3.94-2.65,4.04-5.68.07-2.08.02-.42.01-2.61Z"/>
        </g>
      </g>
      <rect class="cls-3" x="9.04" y="2.55" width="65.92" height="55.58" rx="2.18" ry="2.18"/>
      <path class="cls-1" d="m40.8,48.36c-1,0-2.01,0-3.01,0-1.15,0-1.79-.66-1.81-1.81,0-.81.04-1.64-.07-2.44-.3-2.31-2.78-3.51-4.81-2.38-.59.33-1.17.68-1.75,1.01-.96.55-1.86.33-2.41-.61-1.06-1.81-2.11-3.63-3.15-5.46-.51-.89-.25-1.81.64-2.34.61-.36,1.23-.7,1.83-1.06,2.13-1.29,2.13-4.28,0-5.58-.6-.37-1.22-.7-1.83-1.06-.89-.52-1.15-1.45-.64-2.34,1.04-1.81,2.08-3.61,3.13-5.42.57-.98,1.47-1.21,2.44-.65.54.31,1.09.63,1.63.94,2.31,1.34,4.97-.19,4.99-2.86,0-.66,0-1.32,0-1.98.01-1,.62-1.69,1.61-1.71,2.17-.03,4.33-.03,6.5,0,.99.01,1.6.71,1.62,1.71.02.91-.05,1.83.1,2.72.34,2.13,2.74,3.26,4.65,2.25.62-.33,1.22-.7,1.83-1.05,1-.58,1.91-.36,2.48.63,1.05,1.8,2.09,3.61,3.13,5.42.51.89.26,1.81-.64,2.34-.59.35-1.2.68-1.79,1.04-2.18,1.3-2.18,4.32,0,5.63.6.36,1.23.7,1.83,1.06.86.52,1.1,1.43.6,2.31-1.05,1.84-2.11,3.67-3.18,5.5-.51.87-1.41,1.11-2.31.62-.62-.34-1.22-.71-1.84-1.05-2.18-1.22-4.81.28-4.87,2.79-.02.71,0,1.41,0,2.12,0,1.03-.66,1.7-1.71,1.72-1.07.02-2.13,0-3.2,0Zm6.52-17.87c0-3.6-2.89-6.51-6.47-6.5-3.59,0-6.49,2.9-6.49,6.49,0,3.59,2.9,6.5,6.48,6.5,3.59,0,6.48-2.9,6.48-6.49Z"/>
    </g>
  </g>
</svg>