<?xml version="1.0" encoding="UTF-8"?>
<svg id="Capa_2" data-name="Capa 2" xmlns="http://www.w3.org/2000/svg" viewBox="0 0 92.04 92.04">
  <defs>
    <style>
      .cls-1 {
        fill: #fff;
      }

      .cls-1, .cls-2 {
        stroke-width: 0px;
      }

      .cls-2 {
        fill: #00b1c0;
      }
    </style>
  </defs>
  <g id="Capa_1-2" data-name="Capa 1">
    <g>
      <rect class="cls-2" width="92.04" height="92.04" rx="12.77" ry="12.77"/>
      <g>
        <path class="cls-1" d="m53.67,48.1c.56-1.51.82-3.06.77-4.68-.11-3.25-1.34-6-3.65-8.26-2.27-2.23-5.04-3.33-8.19-3.4-1.09-.02-2.21.18-3.28.41-1.11.24-1.41,1.44-.6,2.27,1.71,1.77,3.44,3.52,5.21,5.24.48.47.6.96.51,1.55-.17,1.14-.33,2.27-.56,3.4-.05.24-.34.57-.57.61-1.21.24-2.44.39-3.67.58-.53.08-.93-.12-1.3-.49-1.67-1.68-3.37-3.35-5.05-5.02-.44-.43-.87-.82-1.57-.62-.71.21-.89.75-1.04,1.39-1.33,5.84,1.75,11.55,6.97,13.78,2.91,1.24,5.88,1.31,8.86.23.48-.17.72-.1,1.06.24,2.54,2.57,5.11,5.12,7.67,7.68.17.17.33.35.5.53,0,0,3.04-1.52,6.33-6.48-2.8-2.8-5.56-5.56-8.31-8.34-.12-.12-.17-.44-.1-.62Z"/>
        <path class="cls-1" d="m62.44,56.4c-.12.21-.23.44-.36.65.14-.21.25-.42.36-.65Z"/>
        <path class="cls-1" d="m79.15,43.42c-.1-.98-.7-1.51-1.59-1.72-.6-.14-1.22-.17-1.84-.26-3.66-.54-6.36-3.67-6.37-7.35,0-2.23.9-4.05,2.42-5.63.81-.84.88-1.81.11-2.67-1.33-1.48-2.72-2.91-4.1-4.35-.18-.19-.41-.33-.62-.51-1.44-1.24-2.21-1.19-3.6.1-3.08,2.86-8.36,2.88-11.19-.93-1.12-1.51-1.51-3.21-1.53-5.05-.01-1.05-.64-1.72-1.69-1.86-.61-.08-1.24-.17-1.85-.17-1.97.03-3.94.06-5.91.19-.87.06-1.45.8-1.54,1.66-.04.4-.07.8-.08,1.19-.11,2.69-2.23,5.51-4.81,6.35-3.11,1.01-5.83.28-8.2-1.91-.92-.85-1.9-.93-2.82-.07-1.7,1.59-3.36,3.21-4.98,4.88-1.06,1.1-.94,2.04.06,3.2.63.73,1.23,1.52,1.65,2.38,1.44,2.97.4,6.84-2.24,8.81-1.56,1.16-3.33,1.58-5.21,1.7-1.13.07-1.69.6-1.85,1.7-.35,2.45-.28,4.91-.07,7.36.09,1.05.63,1.62,1.67,1.88.34.08.7.12,1.05.13,4.66.17,8.11,4.91,6.87,9.4-.41,1.48-1.21,2.67-2.25,3.76-.67.71-.76,1.69-.2,2.42,1.58,2.04,3.38,3.88,5.4,5.48.88.7,1.8.6,2.64-.14.53-.46,1.05-.97,1.65-1.32,3.76-2.19,8.45-1.15,10.6,2.88.68,1.27.81,2.64.89,4.04.06,1.08.66,1.71,1.71,1.84.68.09,1.36.16,2.04.24h3.73c.66-.08,1.32-.14,1.97-.25.85-.15,1.4-.75,1.51-1.61.05-.35.09-.7.1-1.06.14-3.76,3.31-6.9,7.08-6.98,2.27-.05,4.24.71,5.89,2.3.95.92,1.91.99,2.88.11,1.58-1.45,3.08-2.98,4.64-4.46,1.47-1.41,1.34-2.58-.09-4-2.55-2.54-2.52-7.21-.09-9.86,1.66-1.82,3.71-2.63,6.14-2.64,1.03,0,1.83-.6,1.95-1.52.35-2.56.34-5.12.08-7.69Zm-16.7,12.98c-.11.22-.23.44-.36.65-3.28,4.96-6.33,6.48-6.33,6.48-6.8,4.66-17.81,4.46-24.89-3.13-7.04-7.54-7.06-19.33.16-26.93,7.02-7.39,18.85-8.11,26.67-1.63,7.92,6.56,8.91,17.23,4.75,24.57Z"/>
      </g>
    </g>
  </g>
</svg>