<?xml version="1.0" encoding="UTF-8"?>
<svg id="Capa_2" data-name="Capa 2" xmlns="http://www.w3.org/2000/svg" viewBox="0 0 58.76 86">
  <defs>
    <style>
      .cls-1 {
        fill: #fff;
      }

      .cls-1, .cls-2 {
        stroke-width: 0px;
      }

      .cls-2 {
        fill: #00b1c0;
      }
    </style>
  </defs>
  <g id="Capa_1-2" data-name="Capa 1">
    <g>
      <g>
        <path class="cls-2" d="m58.4,25.03C55.17,3.36,30.46-7.1,12.64,5.31-2.34,15.74-4.28,36.44,8.31,49.83c3.85,4.1,6.23,8.9,7.16,14.44.44,2.59,2.32,4.21,4.95,4.23,2.98.02,5.96,0,8.94,0h0c3.04,0,6.09.03,9.13,0,2.47-.02,4.41-1.67,4.81-4.05.95-5.75,3.49-10.66,7.46-14.94,6.43-6.92,9.04-15.15,7.65-24.49Z"/>
        <path class="cls-2" d="m39.12,73.85c-3.24,0-6.48,0-9.72,0-3.34,0-6.68-.02-10.02,0-2.17.01-3.54,1.35-3.61,3.5-.04,1.16-.05,2.32,0,3.47.1,2.1.94,4.01,2.92,4.68,1.81.62,19.68.48,20.04.48,3.41,0,4.17-2.64,4.23-5.2.02-1.02,0-2.05,0-3.07,0-2.53-1.32-3.85-3.85-3.86Z"/>
      </g>
      <path class="cls-1" d="m29.56,49.2c-1.02,0-2.03,0-3.05,0-1.17,0-1.82-.67-1.83-1.83,0-.82.04-1.66-.07-2.47-.3-2.33-2.81-3.56-4.87-2.41-.59.33-1.18.69-1.77,1.03-.97.56-1.89.33-2.44-.62-1.07-1.84-2.14-3.68-3.19-5.53-.52-.9-.26-1.84.64-2.37.62-.36,1.24-.7,1.85-1.07,2.15-1.3,2.15-4.33,0-5.65-.61-.37-1.24-.71-1.85-1.08-.9-.53-1.16-1.47-.64-2.37,1.05-1.83,2.11-3.66,3.17-5.48.58-.99,1.49-1.22,2.47-.66.55.32,1.1.63,1.65.95,2.34,1.36,5.03-.19,5.05-2.9,0-.67,0-1.33,0-2,.01-1.01.63-1.71,1.63-1.73,2.19-.03,4.38-.03,6.58,0,1,.01,1.62.72,1.64,1.73.02.92-.05,1.85.1,2.75.35,2.15,2.77,3.3,4.7,2.28.63-.33,1.24-.71,1.86-1.07,1.01-.59,1.93-.36,2.51.64,1.06,1.82,2.12,3.65,3.17,5.48.52.9.26,1.83-.65,2.37-.6.36-1.21.69-1.81,1.05-2.21,1.32-2.21,4.37,0,5.7.61.37,1.24.71,1.85,1.07.87.53,1.11,1.45.6,2.34-1.07,1.86-2.14,3.72-3.22,5.57-.52.89-1.43,1.13-2.33.63-.63-.35-1.24-.72-1.86-1.07-2.21-1.24-4.87.28-4.93,2.82-.02.71,0,1.43,0,2.14,0,1.04-.67,1.72-1.73,1.74-1.08.02-2.16,0-3.24,0Zm6.6-18.09c0-3.64-2.93-6.59-6.55-6.58-3.63,0-6.57,2.94-6.57,6.57,0,3.63,2.94,6.58,6.56,6.58,3.63,0,6.56-2.93,6.56-6.57Z"/>
    </g>
  </g>
</svg>