<?xml version="1.0" encoding="UTF-8"?>
<svg id="Capa_2" data-name="Capa 2" xmlns="http://www.w3.org/2000/svg" viewBox="0 0 83.76 92.92">
  <defs>
    <style>
      .cls-1 {
        stroke: #fff;
        stroke-linecap: round;
        stroke-miterlimit: 10;
        stroke-width: 4.25px;
      }

      .cls-1, .cls-2 {
        fill: #00b1c0;
      }

      .cls-3 {
        fill: #fff;
      }

      .cls-3, .cls-2 {
        stroke-width: 0px;
      }
    </style>
  </defs>
  <g id="Capa_1-2" data-name="Capa 1">
    <g>
      <g>
        <path class="cls-2" d="m56.36,87.15c-9.65-.02-19.31-.02-28.96,0-2.04,0-3.68,1.37-4.17,3.35-.4,1.65.19,2.42,1.86,2.42,5.56,0,11.13,0,16.69,0s11.31,0,16.96,0c1.52,0,2.13-.76,1.82-2.25-.43-2.06-2.11-3.52-4.21-3.52Z"/>
        <path class="cls-2" d="m49.06,76c-4.78-.03-9.56-.03-14.33,0-.26,0-.65.16-.75.42-.93,2.54-1.81,5.12-2.74,7.8h21.27c-.94-2.7-1.81-5.24-2.72-7.75-.1-.27-.48-.47-.73-.47Z"/>
        <g>
          <path class="cls-2" d="m68.85,30.11c-.15-.03-.29-.08-.44-.1-.03.03-.08.06-.1.08-.09.08.2.06.54.02Z"/>
          <path class="cls-2" d="m83.74,69.91c0-12.88.02-30.74,0-43.62,0-2.36-1.92-4.19-4.3-4.21-.44,0-.79,0-1.09,0,.04-.04.1-.09.13-.12h-21.89c-15.55,0-36.07.12-51.63.12C1.69,22.07,0,23.76,0,27.01c0,12.43,0,29.82,0,42.25v1.27s0,.05,0,.05v.63c0,4.65,1.68,6.99,5.01,6.99,24.57,0,49.13,0,73.7,0,.33,0,.66.01.99-.02,2.15-.19,3.93-2.64,4.03-5.66.07-2.07.02-.42.01-2.6Z"/>
        </g>
      </g>
      <line class="cls-1" x1="13.53" y1="62" x2="70.37" y2="62"/>
      <g>
        <g>
          <path class="cls-2" d="m69.53,40.5c-2.97,0-5.13-2.33-5.14-5.54v-11.01s-11.09,3.69-11.09,3.69c-3.08,1.02-6.17,2.05-9.24,3.1-.79.27-1.56.4-2.34.4s-1.62-.14-2.46-.44c-5.57-1.97-11.15-3.92-16.73-5.88l-8.89-3.11c-2.82-.99-4.22-3.61-3.4-6.37.34-1.15,1.22-2.69,3.45-3.47l16.56-5.78c3.12-1.09,6.35-2.22,9.55-3.28.6-.2,1.26-.3,1.93-.3s1.26.09,1.83.28c9.11,2.98,18.36,6.06,27.3,9.05,2.57.86,3.82,2.59,3.82,5.31,0,5.96,0,11.92,0,17.88,0,3.2-2.1,5.46-5.09,5.48h-.05Z"/>
          <path class="cls-3" d="m41.73,5c.37,0,.73.05,1.05.15,9.11,2.98,18.2,6.01,27.28,9.04,1.56.52,2.11,1.32,2.11,2.94,0,5.96,0,11.92,0,17.87,0,1.82-1.02,2.97-2.62,2.99-.01,0-.02,0-.03,0-1.59,0-2.63-1.19-2.64-3.04,0-4.46,0-8.92,0-13.38v-1.09c-3.93,1.31-7.71,2.56-11.48,3.81-4.06,1.35-8.12,2.68-12.16,4.07-.53.18-1.03.27-1.53.27-.53,0-1.07-.1-1.63-.3-8.53-3.02-17.08-6-25.62-8.99-1.55-.54-2.26-1.85-1.83-3.31.28-.95.97-1.5,1.88-1.82,4.73-1.65,9.46-3.31,14.19-4.95,3.96-1.38,7.9-2.78,11.88-4.09.35-.11.75-.17,1.15-.17m0-5c-.93,0-1.87.15-2.71.43-3.22,1.06-6.45,2.19-9.57,3.28l-2.39.83c-2.33.81-4.67,1.63-7,2.45-2.39.84-4.79,1.67-7.19,2.51-2.53.88-4.31,2.7-5.03,5.12-1.19,4.04.9,8.01,4.97,9.44,2.96,1.04,5.91,2.07,8.87,3.11,5.58,1.95,11.16,3.91,16.74,5.88,1.1.39,2.21.58,3.29.58s2.11-.18,3.15-.54c3.05-1.05,6.17-2.08,9.19-3.08l2.93-.97c1.63-.54,3.26-1.08,4.9-1.63,0,2.52,0,5.03,0,7.55,0,4.58,3.29,8.04,7.64,8.04.02,0,.06,0,.08,0,4.38-.04,7.56-3.4,7.57-7.98,0-5.96,0-11.92,0-17.88,0-3.77-1.96-6.5-5.53-7.68l-.19-.06C62.57,6.43,53.39,3.36,44.33.4c-.82-.27-1.69-.4-2.6-.4h0Z"/>
        </g>
        <g>
          <path class="cls-2" d="m41.59,44.4c-.65,0-1.25-.1-1.8-.31-4.35-1.63-8.69-3.3-13.02-4.97l-4.08-1.57c-2.06-.79-3.29-2.44-3.37-4.54-.05-1.29-.04-2.53-.03-3.84,0-.54,0-1.09,0-1.64,0-.81.39-1.57,1.05-2.04.43-.31.94-.46,1.45-.46.27,0,.55.05.82.14l1.47.51c1.01.35,1.99.69,2.98,1.03l3.07,1.07c3.13,1.09,6.26,2.18,9.38,3.3.74.26,1.45.39,2.16.39.68,0,1.35-.12,2.06-.35,4.06-1.36,8.13-2.72,12.2-4.07l3.73-1.24c.24-.08.49-.16.76-.24l.36-.11c.24-.07.49-.11.74-.11.53,0,1.05.17,1.48.49.64.47,1.02,1.22,1.02,2.01,0,.54,0,1.07.02,1.6.02,1.27.04,2.57-.05,3.89-.08,1.13-.64,3.19-3.57,4.31-3.08,1.17-6.15,2.36-9.22,3.54l-4.55,1.75c-.26.1-.52.2-.78.31-.8.32-1.62.66-2.55.9-.57.15-1.17.23-1.73.23Z"/>
          <path class="cls-3" d="m21.81,27.54c1.53.53,2.99,1.03,4.44,1.54,4.15,1.45,8.3,2.89,12.44,4.37,1.01.36,2,.54,3,.54.95,0,1.9-.16,2.85-.48,5.3-1.78,10.61-3.54,15.92-5.31.33-.11.66-.2,1.07-.33,0,1.83.09,3.59-.03,5.32-.08,1.13-.94,1.75-1.97,2.15-4.6,1.76-9.19,3.53-13.78,5.3-1.01.39-2.01.85-3.05,1.12-.34.09-.73.15-1.11.15-.32,0-.64-.04-.92-.15-5.71-2.13-11.39-4.34-17.08-6.53-1.06-.41-1.73-1.17-1.77-2.3-.07-1.76-.02-3.51-.02-5.38m0-5c-1.03,0-2.04.32-2.9.93-1.32.94-2.1,2.46-2.1,4.07,0,.55,0,1.09,0,1.62-.01,1.28-.02,2.61.03,3.96.12,3.09,1.98,5.62,4.97,6.77l4.08,1.57c4.26,1.64,8.67,3.34,13.03,4.97.82.31,1.72.46,2.67.46.78,0,1.57-.1,2.36-.31,1.08-.28,2.03-.66,2.86-1,.24-.1.49-.2.73-.29l4.71-1.81c3.02-1.16,6.04-2.33,9.07-3.48,4.39-1.68,5.08-5.09,5.17-6.48.09-1.42.08-2.78.06-4.09,0-.52-.01-1.04-.01-1.56,0-1.59-.75-3.08-2.03-4.02-.87-.64-1.91-.98-2.97-.98-.49,0-.99.07-1.47.22l-.36.11c-.29.09-.55.17-.81.25l-3.92,1.3c-4.01,1.33-8.01,2.66-12.01,4.01-.45.15-.86.22-1.26.22-.42,0-.85-.08-1.32-.25-3.12-1.12-6.29-2.22-9.36-3.29l-3.11-1.09c-1-.35-2.01-.7-3.04-1.05l-1.42-.49c-.53-.18-1.08-.27-1.63-.27h0Z"/>
        </g>
      </g>
    </g>
  </g>
</svg>