<?xml version="1.0" encoding="UTF-8"?>
<svg id="Capa_2" data-name="Capa 2" xmlns="http://www.w3.org/2000/svg" viewBox="0 0 92.04 92.04">
  <defs>
    <style>
      .cls-1 {
        stroke: #00b1c0;
        stroke-miterlimit: 10;
        stroke-width: 3px;
      }

      .cls-1, .cls-2 {
        fill: #fff;
      }

      .cls-2, .cls-3 {
        stroke-width: 0px;
      }

      .cls-3 {
        fill: #00b1c0;
      }
    </style>
  </defs>
  <g id="Capa_1-2" data-name="Capa 1">
    <g>
      <rect class="cls-3" x="0" width="92.04" height="92.04" rx="12.77" ry="12.77"/>
      <g>
        <g>
          <g>
            <path class="cls-2" d="m57.21,73.91c-7.47-.01-14.94-.01-22.41,0-1.58,0-2.85,1.06-3.22,2.59-.31,1.28.14,1.87,1.44,1.87,4.3,0,8.61,0,12.91,0s8.75,0,13.12,0c1.18,0,1.65-.59,1.41-1.74-.33-1.6-1.63-2.72-3.26-2.72Z"/>
            <path class="cls-2" d="m51.56,67.21c-3.7-.01-7.39-.01-11.09,0-.2,0-.51.09-.58.23-.72,1.37-1.4,2.76-2.12,4.21h16.46c-.73-1.46-1.4-2.83-2.11-4.18-.08-.15-.37-.25-.56-.25Z"/>
            <g>
              <path class="cls-2" d="m66.87,29.77c-.11-.03-.22-.06-.34-.08-.02.02-.06.05-.08.06-.07.06.15.05.42.01Z"/>
              <path class="cls-2" d="m78.4,60.57c0-9.97.01-23.78,0-33.75,0-1.82-1.49-3.24-3.33-3.26-.34,0-.61,0-.84,0,.03-.03.08-.07.1-.09h-16.94c-12.03,0-27.91.09-39.94.09-2.53,0-3.83,1.3-3.83,3.82,0,9.61,0,23.07,0,32.69v.98s0,.04,0,.04v.49c0,3.6,1.3,5.41,3.88,5.41,19.01,0,38.01,0,57.02,0,.26,0,.51.01.77-.01,1.66-.15,3.04-2.04,3.12-4.38.05-1.6.01-.33.01-2.01Z"/>
            </g>
          </g>
          <g>
            <g>
              <path class="cls-2" d="m67.4,37.38c-2.08,0-3.54-1.58-3.54-3.85v-9.12s-9.07,3.01-9.07,3.01c-2.42.8-4.83,1.6-7.24,2.43-.57.19-1.12.29-1.67.29s-1.16-.1-1.76-.32c-4.34-1.54-8.69-3.06-13.03-4.58l-6.79-2.38c-1.95-.69-2.92-2.5-2.36-4.4.23-.79.84-1.86,2.4-2.4l12.85-4.49c2.4-.84,4.88-1.71,7.34-2.52.42-.14.89-.21,1.36-.21s.89.07,1.28.19c7.05,2.31,14.08,4.65,21.12,7,1.81.6,2.65,1.78,2.66,3.7,0,4.61,0,9.22,0,13.83,0,2.22-1.44,3.79-3.51,3.81h-.04Z"/>
              <path class="cls-3" d="m45.89,10.35c.28,0,.57.04.81.12,7.05,2.3,14.08,4.65,21.11,6.99,1.21.4,1.63,1.02,1.63,2.28,0,4.61,0,9.22,0,13.83,0,1.41-.79,2.3-2.02,2.31,0,0-.02,0-.02,0-1.23,0-2.04-.92-2.04-2.35,0-3.45,0-6.9,0-10.35v-.84c-3.04,1.01-5.96,1.98-8.88,2.95-3.14,1.04-6.28,2.08-9.41,3.15-.41.14-.8.21-1.18.21-.41,0-.83-.08-1.26-.23-6.6-2.34-13.22-4.64-19.82-6.96-1.2-.42-1.75-1.43-1.42-2.56.22-.74.75-1.16,1.45-1.41,3.66-1.28,7.32-2.56,10.98-3.83,3.06-1.07,6.12-2.15,9.19-3.17.27-.09.58-.13.89-.13m0-3c-.63,0-1.26.1-1.83.29-2.48.82-4.98,1.69-7.39,2.54l-1.85.64c-1.81.63-3.61,1.26-5.41,1.89-1.85.65-3.71,1.3-5.56,1.94-1.68.59-2.87,1.79-3.34,3.39-.79,2.67.6,5.29,3.3,6.24,2.28.8,4.57,1.6,6.85,2.4,4.32,1.51,8.65,3.03,12.97,4.56.77.27,1.5.4,2.26.4.72,0,1.44-.12,2.16-.37,2.37-.81,4.79-1.62,7.13-2.39l2.25-.75,4.93-1.64c0,2.35,0,4.69,0,7.04,0,3.1,2.12,5.35,5.04,5.35h.05c2.89-.03,4.99-2.26,4.99-5.31,0-4.61,0-9.22,0-13.83,0-2.55-1.27-4.32-3.68-5.12l-.2-.07c-6.85-2.28-13.94-4.65-20.92-6.93-.54-.18-1.13-.27-1.75-.27h0Z"/>
            </g>
            <g>
              <path class="cls-2" d="m45.78,40.39c-.45,0-.87-.07-1.24-.21-3.33-1.24-6.64-2.52-9.96-3.8l-3.26-1.25c-1.42-.55-2.27-1.68-2.33-3.12-.04-.99-.03-1.94-.02-2.95,0-.42,0-.84,0-1.28v-2.11s4.64,1.6,5.43,1.88l2.31.81c2.44.85,4.88,1.7,7.32,2.58.62.22,1.21.33,1.82.33.57,0,1.14-.1,1.73-.29,3.12-1.05,6.24-2.09,9.36-3.12l2.95-.98c.19-.06.37-.12.58-.18l2.23-.68v2.03c0,.42,0,.83.01,1.25.01.97.03,1.97-.04,2.97-.06.94-.55,2.22-2.49,2.96-2.26.86-4.51,1.73-6.77,2.6l-3.89,1.5c-.2.08-.4.16-.61.24-.61.25-1.23.5-1.92.68-.41.11-.84.16-1.23.16Z"/>
              <path class="cls-3" d="m30.48,27.79c1.18.41,2.31.8,3.44,1.19,3.21,1.12,6.42,2.23,9.62,3.38.78.28,1.55.42,2.32.42.73,0,1.47-.12,2.21-.37,4.1-1.38,8.21-2.74,12.31-4.1.25-.08.51-.16.83-.26,0,1.42.07,2.77-.02,4.12-.06.87-.73,1.36-1.52,1.66-3.56,1.36-7.11,2.73-10.66,4.1-.78.3-1.55.66-2.36.86-.27.07-.57.11-.86.11-.25,0-.5-.03-.71-.11-4.42-1.65-8.81-3.36-13.21-5.05-.82-.32-1.34-.91-1.37-1.78-.05-1.36-.01-2.72-.01-4.17m-3-4.21v4.21c0,.43,0,.85,0,1.26,0,.98-.02,2,.02,3.02.08,2.03,1.31,3.7,3.29,4.46l3.16,1.22c3.3,1.27,6.7,2.58,10.07,3.84.54.2,1.13.3,1.76.3.52,0,1.08-.07,1.61-.21.78-.2,1.48-.49,2.1-.74.19-.08.39-.16.58-.23l3.62-1.39c2.35-.9,4.69-1.81,7.04-2.7,2.82-1.08,3.37-3.13,3.45-4.26.07-1.06.06-2.1.04-3.1,0-.4-.01-.81-.01-1.22v-4.07l-3.89,1.2-.28.09c-.22.07-.41.13-.61.19l-3.03,1.01c-3.1,1.03-6.2,2.06-9.29,3.1-.44.15-.84.22-1.25.22-.43,0-.86-.08-1.31-.24-2.41-.86-4.82-1.7-7.24-2.55l-2.41-.84c-.77-.27-1.55-.54-2.34-.81l-1.11-.38-3.98-1.38h0Z"/>
            </g>
          </g>
        </g>
        <g>
          <line class="cls-1" x1="24.07" y1="50.2" x2="68.05" y2="50.2"/>
          <line class="cls-1" x1="24.07" y1="58.18" x2="68.05" y2="58.18"/>
        </g>
      </g>
    </g>
  </g>
</svg>