<?xml version="1.0" encoding="UTF-8"?>
<svg id="Capa_2" data-name="Capa 2" xmlns="http://www.w3.org/2000/svg" viewBox="0 0 257.43 57.7">
  <defs>
    <style>
      .cls-1 {
        fill: #afc132;
      }

      .cls-1, .cls-2 {
        stroke-width: 0px;
      }

      .cls-2 {
        fill: #fff;
      }

      .cls-3 {
        fill: #013a51;
        font-family: Roboto-Bold, Roboto;
        font-size: 20.15px;
        font-weight: 700;
      }
    </style>
  </defs>
  <g id="boton_" data-name="boton @">
    <g>
      <rect class="cls-2" width="257.43" height="57.7" rx="10.51" ry="10.51"/>
      <text class="cls-3" transform="translate(24.39 36.81)"><tspan x="0" y="0">Campus @Medellín</tspan></text>
      <g>
        <path class="cls-1" d="m229.22,46.75c-.41-.18-.85-.31-1.21-.56-.69-.48-1.04-1.17-1.07-2.01-.02-.47,0-.94,0-1.47-.14,0-.25,0-.36,0-1.21,0-2.42,0-3.63,0-2.32,0-4.08-1.76-4.1-4.07,0-.91-.01-1.81,0-2.72.01-.68.53-1.22,1.19-1.3.65-.07,1.27.35,1.44.98.04.16.05.33.05.5,0,.8,0,1.6,0,2.4,0,.95.54,1.49,1.48,1.5,1.2,0,2.4,0,3.6,0,.09,0,.19,0,.32-.02v-.42c0-6.43.02-12.86-.01-19.3,0-1.53.54-2.6,2.1-3.14-.15-.01-.23-.03-.3-.03-1.91,0-3.81,0-5.72,0-.92,0-1.46.55-1.47,1.48,0,.41,0,.82,0,1.23-.02.75-.6,1.32-1.33,1.33-.74,0-1.35-.58-1.34-1.34.01-.81-.03-1.64.15-2.41.4-1.74,2.03-2.98,3.81-2.98,4.81-.01,9.62,0,14.44,0,.91,0,1.74.16,2.39.84.48.5.74,1.1.76,1.79.01.53,0,1.05,0,1.58,0,7.51,0,15.01,0,22.52,0,1.48-.66,2.4-2.05,2.86-2.56.86-5.12,1.71-7.69,2.57-.21.07-.42.13-.63.2h-.82Z"/>
        <path class="cls-1" d="m208.06,27.61c.27-.8.84-1.1,1.67-1.08,1.56.03,3.12,0,4.67,0h.4c0-.13,0-.24,0-.34,0-1.18,0-2.36,0-3.54,0-.64.22-1.13.82-1.4.55-.25,1.09-.1,1.6.41,1.72,1.72,3.44,3.44,5.16,5.16.68.68.68,1.44,0,2.13-1.74,1.74-3.48,3.49-5.23,5.22-.78.78-2.01.49-2.29-.53-.05-.18-.05-.37-.05-.56,0-1.15,0-2.29,0-3.44,0-.11,0-.23,0-.38-.14,0-.26-.02-.38-.02-1.55,0-3.1-.02-4.64,0-.83.02-1.43-.26-1.72-1.07v-.57Z"/>
      </g>
    </g>
  </g>
</svg>