<?xml version="1.0" encoding="UTF-8"?>
<svg id="Capa_2" data-name="Capa 2" xmlns="http://www.w3.org/2000/svg" viewBox="0 0 261.58 57.7">
  <defs>
    <style>
      .cls-1 {
        fill: #fff;
      }

      .cls-2 {
        fill: #afc132;
      }

      .cls-3 {
        fill: #002a3f;
        font-family: Roboto-Bold, Roboto;
        font-size: 20px;
        font-weight: 700;
      }
    </style>
  </defs>
  <g id="boton_institucional" data-name="boton institucional">
    <g>
      <rect class="cls-2" x="0" width="261.58" height="57.7" rx="10.51" ry="10.51"/>
      <text class="cls-3" transform="translate(14.65 36.72)"><tspan x="0" y="0">Campus Institucional</tspan></text>
      <g>
        <path class="cls-1" d="m235.97,46.75c-.39-.17-.81-.29-1.15-.53-.65-.45-.98-1.11-1.01-1.91-.01-.45,0-.89,0-1.39-.13,0-.23,0-.34,0-1.15,0-2.29,0-3.44,0-2.19,0-3.86-1.66-3.88-3.85,0-.86-.01-1.71,0-2.57.01-.64.5-1.16,1.13-1.23.62-.07,1.2.33,1.36.93.04.15.04.31.05.47,0,.76,0,1.51,0,2.27,0,.9.51,1.41,1.4,1.42,1.14,0,2.27,0,3.41,0,.09,0,.18,0,.3-.01v-.39c0-6.09.02-12.17-.01-18.26,0-1.45.52-2.46,1.99-2.97-.15-.01-.22-.03-.29-.03-1.8,0-3.61,0-5.41,0-.87,0-1.38.52-1.39,1.4,0,.39,0,.78,0,1.17-.02.71-.57,1.25-1.26,1.26-.7,0-1.28-.54-1.27-1.27.01-.76-.02-1.55.14-2.28.37-1.65,1.92-2.82,3.6-2.82,4.55,0,9.11,0,13.66,0,.86,0,1.64.15,2.27.79.45.47.7,1.04.72,1.69.01.5,0,1,0,1.49,0,7.1,0,14.2,0,21.31,0,1.4-.62,2.27-1.94,2.71-2.42.81-4.85,1.62-7.27,2.43-.2.07-.39.12-.59.18h-.78Z"/>
        <path class="cls-1" d="m215.95,28.64c.26-.76.79-1.04,1.58-1.02,1.47.03,2.95,0,4.42,0h.38c0-.12,0-.22,0-.33,0-1.12,0-2.23,0-3.35,0-.61.21-1.07.78-1.32.52-.23,1.03-.1,1.51.38,1.63,1.63,3.25,3.25,4.88,4.88.65.65.65,1.36,0,2.01-1.65,1.65-3.29,3.3-4.95,4.94-.74.73-1.9.46-2.17-.5-.05-.17-.05-.35-.05-.53,0-1.09,0-2.17,0-3.26,0-.11,0-.22,0-.36-.13,0-.25-.02-.36-.02-1.46,0-2.93-.02-4.39,0-.79.02-1.35-.24-1.63-1.01v-.54Z"/>
      </g>
    </g>
  </g>
</svg>