<?xml version="1.0" encoding="UTF-8"?>
<svg id="Capa_2" data-name="Capa 2" xmlns="http://www.w3.org/2000/svg" viewBox="0 0 253.99 52.83">
  <defs>
    <style>
      .cls-1 {
        fill: #f7df00;
      }

      .cls-1, .cls-2, .cls-3, .cls-4 {
        stroke-width: 0px;
      }

      .cls-2, .cls-3 {
        fill: #fff;
      }

      .cls-3 {
        fill-rule: evenodd;
      }

      .cls-4 {
        fill: #002a3f;
      }
    </style>
  </defs>
  <g id="Capa_1-2" data-name="Capa 1">
    <g>
      <g>
        <path class="cls-2" d="m52.31,17.58s-.02.06-.04.09c-.03.03-.08.05-.14.06-.07.02-.15.03-.26.04-.11.01-.25.02-.42.02s-.31,0-.42-.02c-.11-.01-.2-.02-.27-.04-.07-.01-.11-.04-.14-.06-.03-.03-.04-.05-.04-.09v-6.05s.01-.06.04-.09c.03-.03.08-.05.15-.06.07-.01.16-.03.27-.04.11,0,.25-.01.42-.01s.31,0,.42.01c.11.01.2.03.26.04.07.02.11.04.14.06.03.03.04.06.04.09v6.05Z"/>
        <path class="cls-2" d="m62.55,17.3c0,.07-.01.14-.05.2-.04.06-.08.11-.14.15-.06.04-.13.07-.21.09-.08.02-.16.03-.25.03h-.74c-.16,0-.29-.01-.4-.04-.11-.02-.22-.06-.31-.12-.1-.06-.19-.15-.28-.25-.09-.1-.18-.24-.3-.4l-2.12-3c-.12-.18-.25-.37-.38-.57-.13-.21-.24-.41-.34-.6h-.01c.02.24.03.47.04.71,0,.24.02.48.02.73v3.35s-.01.06-.04.09c-.02.03-.06.05-.13.07-.06.02-.14.03-.24.04-.1.01-.23.02-.39.02s-.28,0-.38-.02c-.1-.01-.18-.02-.24-.04-.06-.02-.1-.04-.12-.07-.02-.03-.03-.06-.03-.09v-5.76c0-.16.06-.27.18-.35.12-.08.27-.12.45-.12h.93c.17,0,.31.01.42.03.11.02.22.06.31.11.09.05.17.12.25.2.08.08.16.2.25.32l1.66,2.34c.1.14.19.28.29.41.09.14.18.28.27.41.09.14.17.27.26.41.08.13.16.26.24.4h0c-.01-.23-.02-.47-.03-.72,0-.25,0-.49,0-.72v-3.01s.01-.06.04-.09c.03-.03.07-.05.13-.07.06-.02.14-.03.24-.04.1,0,.23-.01.39-.01.15,0,.27,0,.37.01.1,0,.18.02.23.04.05.02.09.05.12.07.02.03.03.06.03.09v5.76Z"/>
        <path class="cls-2" d="m70.83,15.84c0,.33-.08.63-.25.88-.17.26-.4.47-.68.63-.29.17-.62.3-1,.39-.38.09-.79.13-1.23.13-.29,0-.57-.01-.82-.05-.25-.04-.48-.08-.67-.13-.19-.05-.36-.11-.49-.16-.13-.05-.22-.11-.28-.15-.06-.04-.1-.1-.12-.18-.03-.08-.04-.2-.04-.35,0-.1,0-.19.01-.26,0-.07.02-.12.04-.17.02-.04.05-.07.08-.09.03-.02.07-.03.11-.03.06,0,.15.03.26.08.11.05.26.11.43.18.18.06.38.13.63.18.24.06.52.08.84.08.21,0,.4-.02.57-.05.17-.04.31-.09.43-.16.12-.07.2-.16.27-.26.06-.1.09-.21.09-.34,0-.14-.05-.27-.16-.37-.11-.1-.24-.2-.41-.28-.17-.08-.36-.16-.58-.23-.22-.07-.44-.15-.67-.23-.23-.08-.45-.17-.67-.27-.22-.1-.41-.22-.58-.36-.17-.14-.31-.3-.41-.5-.11-.19-.16-.42-.16-.69,0-.31.07-.58.23-.81.15-.23.35-.43.61-.58.26-.16.56-.27.91-.35.35-.07.72-.11,1.11-.11.2,0,.41.01.61.04.2.02.39.05.57.09.17.04.33.09.47.13.14.05.23.09.27.13.04.03.07.06.09.08.02.03.03.05.04.1.01.04.02.08.02.14,0,.06,0,.13,0,.21,0,.1,0,.18,0,.25,0,.06-.02.12-.03.16-.02.04-.04.08-.07.1-.03.02-.07.03-.12.03s-.13-.02-.23-.07c-.11-.04-.23-.09-.39-.15-.15-.05-.33-.1-.53-.15-.2-.05-.43-.07-.67-.07-.19,0-.35.02-.49.05-.14.03-.26.08-.35.14-.09.06-.16.13-.21.22-.04.09-.07.18-.07.27,0,.14.05.26.15.37.1.11.24.2.41.28.17.08.37.16.59.23.22.07.44.14.67.23.23.08.45.17.67.27.22.1.42.22.59.36.17.14.31.31.41.49.11.19.16.41.16.67"/>
        <path class="cls-2" d="m79.05,11.88c0,.1,0,.18-.02.25,0,.07-.03.12-.05.16-.02.04-.05.07-.08.09-.03.02-.07.03-.11.03h-2.14v5.17s-.01.06-.04.09c-.03.03-.08.05-.14.06-.07.02-.16.03-.27.04-.11.01-.25.02-.42.02s-.31,0-.42-.02c-.11-.01-.2-.02-.27-.04-.07-.01-.11-.04-.14-.06-.03-.03-.04-.05-.04-.09v-5.17h-2.14s-.08,0-.11-.03c-.03-.02-.06-.05-.08-.09-.02-.04-.04-.1-.05-.16-.01-.07-.02-.15-.02-.25s0-.18.02-.25c.01-.07.03-.13.05-.17.02-.04.05-.07.08-.09.03-.02.07-.03.11-.03h6.01s.08.01.11.03c.03.02.06.05.08.09.02.04.04.1.05.17.01.07.02.15.02.25"/>
        <path class="cls-2" d="m83.15,17.58s-.01.06-.04.09c-.03.03-.08.05-.14.06-.07.02-.16.03-.27.04-.11.01-.25.02-.42.02s-.31,0-.42-.02c-.11-.01-.2-.02-.27-.04-.07-.01-.11-.04-.14-.06-.03-.03-.04-.05-.04-.09v-6.05s.02-.06.04-.09c.03-.03.08-.05.15-.06.07-.01.16-.03.27-.04.11,0,.25-.01.41-.01s.31,0,.42.01c.11.01.2.03.27.04.06.02.11.04.14.06.03.03.04.06.04.09v6.05Z"/>
        <path class="cls-2" d="m92.04,11.88c0,.1,0,.18-.02.25-.01.07-.03.12-.05.16-.02.04-.05.07-.08.09-.04.02-.07.03-.11.03h-2.14v5.17s-.02.06-.04.09c-.03.03-.08.05-.14.06-.07.02-.16.03-.27.04-.11.01-.25.02-.42.02s-.3,0-.42-.02c-.11-.01-.2-.02-.27-.04-.06-.01-.11-.04-.14-.06-.03-.03-.04-.05-.04-.09v-5.17h-2.14s-.08,0-.11-.03c-.03-.02-.06-.05-.08-.09-.02-.04-.04-.1-.05-.16,0-.07-.02-.15-.02-.25s0-.18.02-.25c.01-.07.03-.13.05-.17.02-.04.05-.07.08-.09.03-.02.07-.03.11-.03h6.01s.08.01.11.03c.03.02.06.05.08.09.02.04.04.1.05.17,0,.07.02.15.02.25"/>
        <path class="cls-2" d="m101.36,15.37c0,.4-.08.75-.23,1.06-.15.31-.38.57-.68.79-.3.22-.67.38-1.11.49-.44.11-.95.17-1.52.17-.54,0-1.02-.05-1.44-.15-.43-.1-.79-.26-1.08-.46-.3-.2-.52-.46-.68-.76-.15-.31-.23-.66-.23-1.07v-3.9s.01-.06.04-.09c.03-.03.07-.05.14-.06.07-.01.16-.03.27-.04.11,0,.25-.01.42-.01s.31,0,.41.01c.11.01.2.03.27.04.07.02.11.04.14.06.03.03.04.06.04.09v3.78c0,.25.04.47.13.66.09.19.2.34.36.46.16.12.34.21.56.28.22.06.46.09.73.09s.52-.03.73-.09c.22-.07.4-.16.55-.27.15-.12.27-.27.35-.45.08-.17.12-.37.12-.6v-3.86s.02-.06.04-.09c.03-.03.07-.05.14-.06.07-.01.16-.03.27-.04.11,0,.25-.01.42-.01s.3,0,.41.01c.11.01.19.03.26.04.07.02.11.04.14.06.03.03.04.06.04.09v3.84Z"/>
        <path class="cls-2" d="m110.47,16.79c0,.08,0,.15,0,.21,0,.06-.02.11-.03.15-.01.04-.03.08-.05.11-.02.03-.05.06-.1.1-.05.04-.14.09-.28.14-.14.06-.31.12-.51.17-.2.06-.43.1-.69.14-.26.04-.54.05-.83.05-.59,0-1.11-.07-1.58-.2-.47-.13-.87-.34-1.2-.61-.33-.27-.58-.6-.76-1.01-.18-.4-.26-.87-.26-1.41s.1-1.02.29-1.45c.19-.42.46-.78.81-1.07s.76-.51,1.25-.65c.49-.15,1.02-.22,1.61-.22.23,0,.46.02.68.05.22.03.42.07.61.11.19.05.35.11.5.16.15.07.25.12.32.16.06.05.1.08.12.11.02.03.04.07.05.11.01.04.02.1.03.16,0,.06,0,.14,0,.23,0,.1,0,.18-.01.25,0,.07-.02.12-.05.17-.02.04-.05.07-.08.09-.03.02-.06.03-.1.03-.07,0-.15-.02-.25-.08-.1-.06-.23-.13-.39-.2-.16-.06-.35-.13-.57-.19-.22-.06-.49-.09-.79-.09-.34,0-.64.05-.91.15-.27.1-.49.25-.68.45-.19.19-.33.43-.43.7-.1.28-.15.59-.15.93,0,.38.05.7.15.97.1.28.25.5.44.68.19.18.42.31.69.4.27.09.58.13.91.13.31,0,.57-.03.8-.09.23-.05.42-.11.58-.18.16-.06.29-.12.4-.18.1-.05.18-.08.24-.08.04,0,.08,0,.11.02.02.01.05.04.07.08.02.04.03.09.04.16.01.07.01.17.01.29"/>
        <path class="cls-2" d="m114.81,17.58s-.01.06-.04.09c-.03.03-.08.05-.14.06-.06.02-.15.03-.26.04-.11.01-.25.02-.42.02s-.31,0-.42-.02c-.12-.01-.2-.02-.27-.04-.06-.01-.11-.04-.14-.06-.03-.03-.04-.05-.04-.09v-6.05s.01-.06.04-.09c.03-.03.08-.05.15-.06.07-.01.16-.03.27-.04.11,0,.25-.01.42-.01s.31,0,.42.01c.11.01.2.03.26.04.07.02.12.04.14.06.03.03.04.06.04.09v6.05Z"/>
        <path class="cls-2" d="m122.09,9.62h0c.06-.05.11-.08.17-.12.05-.03.12-.05.2-.07.08-.02.17-.03.28-.03.11,0,.25,0,.41,0,.2,0,.36,0,.47.03.11.02.19.05.23.08.04.04.05.07.03.11-.02.04-.06.08-.13.12l-1.46.99s-.09.06-.14.08c-.05.02-.1.04-.17.06-.07.01-.15.02-.24.03-.09,0-.2.01-.34.01-.15,0-.27-.01-.36-.02-.09-.01-.15-.03-.19-.05-.04-.02-.05-.05-.04-.08,0-.03.04-.08.09-.12l1.19-1.01Zm1.79,4.93h0c0-.34-.03-.64-.11-.92-.07-.28-.19-.51-.36-.71-.17-.19-.39-.35-.67-.45-.28-.11-.64-.16-1.06-.16s-.78.06-1.07.18c-.29.12-.52.28-.69.48-.17.2-.3.43-.37.71-.07.26-.11.55-.11.85,0,.35.04.66.11.95.07.27.19.52.36.71.17.2.39.35.67.45.28.1.63.16,1.06.16s.78-.06,1.07-.18c.29-.12.52-.28.69-.48.18-.21.3-.44.37-.71.07-.27.11-.56.11-.87m1.82-.07c0,.53-.09,1.01-.26,1.43-.18.42-.44.77-.78,1.07-.35.29-.78.51-1.29.67-.51.15-1.11.23-1.78.23s-1.25-.06-1.74-.19c-.49-.13-.91-.33-1.24-.6-.33-.27-.57-.61-.74-1.02-.17-.41-.25-.9-.25-1.47,0-.52.09-.98.27-1.4.18-.41.44-.76.78-1.06.35-.29.78-.51,1.29-.67.51-.15,1.11-.23,1.78-.23s1.22.07,1.71.19c.5.13.91.33,1.24.59.33.26.58.6.75,1.01.17.41.26.89.26,1.44"/>
        <path class="cls-2" d="m135.54,17.3c0,.07-.02.14-.05.2-.03.06-.08.11-.14.15-.06.04-.13.07-.21.09-.08.02-.16.03-.25.03h-.74c-.15,0-.29-.01-.4-.04-.11-.02-.22-.06-.31-.12-.09-.06-.19-.15-.27-.25-.09-.1-.19-.24-.3-.4l-2.12-3c-.12-.18-.25-.37-.37-.57-.13-.21-.24-.41-.34-.6h-.01c.01.24.03.47.04.71,0,.24.01.48.01.73v3.35s-.01.06-.04.09c-.02.03-.06.05-.12.07-.06.02-.14.03-.24.04-.1.01-.23.02-.39.02s-.28,0-.38-.02c-.1-.01-.18-.02-.24-.04-.06-.02-.1-.04-.12-.07-.02-.03-.03-.06-.03-.09v-5.76c0-.16.06-.27.18-.35.12-.08.27-.12.44-.12h.93c.17,0,.31.01.42.03.11.02.22.06.31.11.09.05.17.12.25.2.08.08.16.2.24.32l1.66,2.34c.09.14.19.28.29.41.09.14.19.28.27.41.09.14.17.27.26.41.08.13.17.26.25.4h0c-.02-.23-.02-.47-.03-.72,0-.25,0-.49,0-.72v-3.01s.01-.06.04-.09c.02-.03.07-.05.13-.07.06-.02.14-.03.24-.04.1,0,.23-.01.39-.01.15,0,.28,0,.38.01.1,0,.18.02.23.04.06.02.1.05.12.07.02.03.03.06.03.09v5.76Z"/>
        <path class="cls-2" d="m150.12,15.37c0,.4-.08.75-.23,1.06-.15.31-.38.57-.68.79-.3.22-.67.38-1.11.49-.44.11-.94.17-1.52.17-.53,0-1.02-.05-1.44-.15-.43-.1-.79-.26-1.08-.46-.29-.2-.52-.46-.68-.76-.16-.31-.24-.66-.24-1.07v-3.9s.01-.06.04-.09c.03-.03.08-.05.14-.06.07-.01.16-.03.27-.04.11,0,.25-.01.42-.01s.31,0,.42.01c.11.01.2.03.26.04.07.02.11.04.14.06.03.03.04.06.04.09v3.78c0,.25.04.47.13.66.08.19.2.34.36.46.16.12.34.21.56.28.22.06.46.09.73.09s.52-.03.73-.09c.22-.07.4-.16.55-.27.15-.12.27-.27.35-.45.08-.17.12-.37.12-.6v-3.86s.01-.06.04-.09c.03-.03.07-.05.14-.06.06-.01.15-.03.27-.04.11,0,.25-.01.42-.01s.3,0,.41.01c.11.01.19.03.26.04.07.02.11.04.14.06.03.03.04.06.04.09v3.84Z"/>
        <path class="cls-2" d="m160.37,17.3c0,.07-.02.14-.05.2-.03.06-.08.11-.14.15-.06.04-.13.07-.21.09-.08.02-.17.03-.25.03h-.74c-.15,0-.29-.01-.4-.04-.11-.02-.22-.06-.31-.12-.09-.06-.19-.15-.27-.25-.09-.1-.19-.24-.3-.4l-2.12-3c-.12-.18-.25-.37-.37-.57-.13-.21-.24-.41-.34-.6h-.01c.02.24.03.47.04.71,0,.24.01.48.01.73v3.35s-.01.06-.04.09c-.02.03-.07.05-.12.07-.06.02-.14.03-.24.04-.1.01-.23.02-.39.02s-.28,0-.38-.02c-.1-.01-.18-.02-.24-.04-.06-.02-.1-.04-.12-.07-.02-.03-.03-.06-.03-.09v-5.76c0-.16.06-.27.18-.35.12-.08.27-.12.45-.12h.93c.17,0,.31.01.42.03.11.02.22.06.31.11.09.05.17.12.25.2.08.08.16.2.25.32l1.66,2.34c.1.14.19.28.29.41.1.14.19.28.28.41.08.14.17.27.25.41.09.13.17.26.25.4h0c-.01-.23-.02-.47-.03-.72,0-.25,0-.49,0-.72v-3.01s0-.06.04-.09c.03-.03.07-.05.13-.07.06-.02.14-.03.25-.04.1,0,.23-.01.39-.01s.28,0,.38.01c.1,0,.18.02.23.04.06.02.09.05.12.07.02.03.03.06.03.09v5.76Z"/>
        <path class="cls-2" d="m165.31,17.58s-.01.06-.04.09c-.03.03-.08.05-.14.06-.07.02-.16.03-.27.04-.11.01-.25.02-.42.02s-.31,0-.42-.02c-.11-.01-.2-.02-.27-.04-.07-.01-.11-.04-.14-.06-.03-.03-.04-.05-.04-.09v-6.05s.01-.06.04-.09c.03-.03.08-.05.15-.06.07-.01.16-.03.27-.04.11,0,.25-.01.41-.01s.31,0,.42.01c.11.01.2.03.27.04.06.02.11.04.14.06.03.03.04.06.04.09v6.05Z"/>
        <path class="cls-2" d="m172.77,17.53c-.02.06-.05.1-.09.14-.04.03-.09.06-.17.08-.08.01-.19.03-.32.03-.14,0-.32,0-.54,0-.17,0-.32,0-.45,0s-.23,0-.32-.01c-.09,0-.16-.02-.22-.03-.05-.01-.1-.03-.14-.05-.04-.02-.07-.04-.09-.07-.02-.03-.04-.07-.05-.11l-2.54-5.68c-.05-.12-.09-.21-.1-.28-.01-.07,0-.12.07-.15.06-.04.15-.06.28-.07.13,0,.32-.01.55-.01.2,0,.36,0,.48,0,.11,0,.2.02.26.03.06.02.11.04.13.08.02.03.05.07.07.13l2.07,4.94h0l2.04-4.91c.02-.05.04-.1.07-.14.03-.03.07-.06.13-.08.06-.02.16-.03.28-.04.12,0,.28,0,.49,0s.36,0,.47.01c.11.01.19.03.23.07.04.04.06.09.04.16-.02.07-.05.16-.1.28l-2.54,5.68Z"/>
        <path class="cls-2" d="m182.92,17.25c0,.09,0,.18-.02.24,0,.06-.02.12-.05.16-.02.04-.05.07-.08.08-.03.02-.07.02-.11.02h-4.29c-.14,0-.27-.03-.36-.09-.1-.07-.15-.17-.15-.32v-5.59c0-.14.05-.25.15-.31.1-.07.22-.1.36-.1h4.26s.07.01.1.03c.03.02.06.04.08.09.02.04.04.09.05.16.01.06.02.14.02.24,0,.09,0,.17-.02.23-.01.07-.03.12-.05.15-.02.04-.05.07-.08.09-.03.02-.06.03-.1.03h-3.05v1.56h2.58s.07,0,.11.03c.03.01.06.04.08.08.02.04.04.09.05.15,0,.07.02.15.02.24,0,.09,0,.17-.02.23-.01.07-.03.12-.05.16-.02.04-.05.06-.08.08-.04.02-.07.02-.11.02h-2.58v1.81h3.07s.08.01.11.03c.03.02.06.05.08.09.02.04.04.09.05.16.01.06.02.14.02.24"/>
        <path class="cls-2" d="m189.9,13.24h0c0-.21-.07-.39-.19-.53-.13-.14-.34-.25-.63-.3-.09-.02-.19-.03-.3-.04-.11-.01-.26-.01-.46-.01h-.78v1.81h.88c.25,0,.46-.02.65-.07.18-.05.34-.11.46-.18.12-.08.22-.18.28-.29.06-.11.09-.24.09-.38m2.24,4.35s-.01.06-.03.09c-.02.02-.06.04-.13.06-.07.02-.16.03-.29.04-.13,0-.3,0-.52,0-.18,0-.33,0-.44,0-.11,0-.2-.02-.26-.04-.07-.02-.11-.04-.14-.07-.03-.02-.05-.06-.07-.1l-.76-1.43c-.09-.16-.18-.31-.27-.43-.09-.13-.19-.23-.29-.32-.11-.08-.23-.15-.37-.19-.14-.04-.3-.07-.49-.07h-.54v2.44s-.01.06-.04.09c-.03.03-.08.05-.14.06-.07.02-.15.03-.26.04-.11.01-.25.02-.42.02s-.31,0-.42-.02c-.11-.01-.2-.02-.27-.04-.07-.01-.11-.04-.14-.06-.03-.03-.04-.05-.04-.09v-5.82c0-.14.05-.25.15-.31.1-.07.22-.1.36-.1h2.21c.22,0,.41,0,.55.01.15,0,.28.01.4.02.34.04.65.1.93.19.27.1.51.21.7.35.19.14.34.31.44.51.1.2.15.42.15.68,0,.22-.04.41-.11.59-.07.18-.18.33-.32.47-.14.14-.31.26-.52.36-.21.1-.44.18-.71.25.13.05.25.1.36.17.11.06.22.15.32.24.1.09.19.2.28.32.09.12.18.25.26.41l.72,1.26c.06.13.11.22.13.27.02.06.04.1.04.14"/>
        <path class="cls-2" d="m199.69,15.84c0,.33-.08.63-.25.88-.17.26-.39.47-.68.63-.29.17-.62.3-1,.39-.38.09-.79.13-1.23.13-.29,0-.57-.01-.82-.05-.25-.04-.48-.08-.67-.13-.19-.05-.35-.11-.48-.16-.13-.05-.23-.11-.28-.15-.06-.04-.1-.1-.12-.18-.03-.08-.04-.2-.04-.35,0-.1,0-.19.01-.26,0-.07.02-.12.04-.17.02-.04.05-.07.08-.09.03-.02.07-.03.12-.03.06,0,.15.03.26.08.11.05.25.11.43.18.18.06.39.13.63.18.24.06.53.08.85.08.21,0,.4-.02.57-.05.17-.04.31-.09.42-.16.12-.07.2-.16.27-.26.06-.1.09-.21.09-.34,0-.14-.05-.27-.16-.37-.11-.1-.24-.2-.41-.28-.17-.08-.36-.16-.58-.23-.22-.07-.44-.15-.67-.23-.23-.08-.45-.17-.67-.27-.21-.1-.41-.22-.58-.36-.17-.14-.3-.3-.41-.5-.11-.19-.16-.42-.16-.69,0-.31.08-.58.23-.81.15-.23.36-.43.62-.58.25-.16.56-.27.91-.35.35-.07.72-.11,1.11-.11.2,0,.4.01.61.04.2.02.39.05.57.09.18.04.33.09.47.13.14.05.23.09.27.13.04.03.07.06.09.08.01.03.03.05.04.1.01.04.02.08.02.14,0,.06,0,.13,0,.21,0,.1,0,.18,0,.25,0,.06-.02.12-.04.16-.01.04-.04.08-.07.1-.03.02-.07.03-.12.03s-.12-.02-.23-.07c-.1-.04-.24-.09-.39-.15-.15-.05-.33-.1-.53-.15-.2-.05-.43-.07-.67-.07-.19,0-.35.02-.49.05-.14.03-.26.08-.35.14-.09.06-.16.13-.21.22-.05.09-.07.18-.07.27,0,.14.05.26.15.37.1.11.24.2.41.28.17.08.37.16.59.23.22.07.44.14.67.23.23.08.45.17.67.27.22.1.42.22.59.36.17.14.31.31.42.49.11.19.16.41.16.67"/>
        <path class="cls-2" d="m204.1,17.58s-.01.06-.04.09c-.03.03-.08.05-.14.06-.07.02-.15.03-.26.04-.11.01-.25.02-.42.02s-.31,0-.42-.02c-.11-.01-.2-.02-.27-.04-.07-.01-.11-.04-.14-.06-.03-.03-.04-.05-.04-.09v-6.05s.01-.06.04-.09c.03-.03.08-.05.15-.06.07-.01.16-.03.27-.04.11,0,.25-.01.41-.01s.31,0,.42.01c.11.01.2.03.26.04.07.02.11.04.14.06.03.03.04.06.04.09v6.05Z"/>
        <path class="cls-2" d="m212.99,11.88c0,.1,0,.18-.02.25-.01.07-.03.12-.05.16-.02.04-.05.07-.08.09-.03.02-.07.03-.11.03h-2.14v5.17s-.01.06-.04.09c-.03.03-.08.05-.14.06-.07.02-.16.03-.27.04-.11.01-.25.02-.42.02s-.31,0-.42-.02c-.11-.01-.2-.02-.27-.04-.07-.01-.11-.04-.14-.06-.03-.03-.04-.05-.04-.09v-5.17h-2.14s-.08,0-.11-.03c-.03-.02-.06-.05-.08-.09-.02-.04-.04-.1-.05-.16-.01-.07-.02-.15-.02-.25s0-.18.02-.25c0-.07.03-.13.05-.17.02-.04.05-.07.08-.09.03-.02.07-.03.11-.03h6.02s.08.01.11.03c.03.02.06.05.08.09.02.04.03.1.05.17,0,.07.02.15.02.25"/>
        <path class="cls-2" d="m217.36,12.57h0l-1.2,2.72h2.42l-1.21-2.72Zm3.92,4.7c.05.12.09.21.1.28.01.07,0,.12-.05.16-.05.03-.13.06-.26.06-.12.01-.29.02-.51.02s-.4,0-.52-.01c-.13,0-.22-.01-.29-.03-.07-.02-.11-.03-.14-.06-.03-.03-.05-.06-.06-.11l-.58-1.29h-3.2l-.54,1.25s-.04.08-.07.12c-.03.03-.08.06-.14.07-.07.02-.15.03-.27.04-.12,0-.27.01-.46.01-.2,0-.36,0-.47-.02-.11-.01-.19-.04-.24-.07-.04-.04-.06-.09-.05-.16.01-.07.05-.16.1-.28l2.63-5.68c.03-.06.06-.1.09-.14.03-.04.09-.06.17-.08.08-.02.18-.03.32-.03.14,0,.32,0,.54,0,.26,0,.47,0,.62,0,.15,0,.28.02.36.03.09.02.15.04.19.08.04.04.07.08.1.15l2.64,5.68Z"/>
        <path class="cls-2" d="m227.92,13.24h0c0-.21-.06-.39-.19-.53-.13-.14-.33-.25-.62-.3-.09-.02-.19-.03-.3-.04-.11-.01-.27-.01-.47-.01h-.78v1.81h.88c.25,0,.46-.02.65-.07.18-.05.34-.11.46-.18.12-.08.22-.18.28-.29.06-.11.09-.24.09-.38m2.24,4.35s0,.06-.02.09c-.02.02-.06.04-.13.06-.06.02-.16.03-.29.04-.13,0-.3,0-.52,0-.19,0-.33,0-.44,0-.11,0-.2-.02-.26-.04-.06-.02-.11-.04-.13-.07-.03-.02-.05-.06-.07-.1l-.76-1.43c-.09-.16-.19-.31-.27-.43-.09-.13-.19-.23-.29-.32-.11-.08-.23-.15-.37-.19-.14-.04-.3-.07-.49-.07h-.54v2.44s-.01.06-.04.09c-.03.03-.08.05-.14.06-.06.02-.15.03-.26.04-.11.01-.25.02-.42.02s-.31,0-.42-.02c-.11-.01-.2-.02-.27-.04-.07-.01-.11-.04-.14-.06-.03-.03-.04-.05-.04-.09v-5.82c0-.14.05-.25.15-.31.1-.07.22-.1.37-.1h2.21c.22,0,.41,0,.55.01.15,0,.27.01.39.02.34.04.65.1.93.19.28.1.51.21.7.35.19.14.34.31.44.51.1.2.15.42.15.68,0,.22-.04.41-.11.59-.07.18-.18.33-.32.47-.14.14-.31.26-.52.36-.21.1-.44.18-.7.25.13.05.25.1.36.17.11.06.22.15.32.24.1.09.19.2.28.32.09.12.18.25.26.41l.72,1.26c.07.13.11.22.13.27.02.06.03.1.03.14"/>
        <path class="cls-2" d="m234.52,17.58s-.01.06-.04.09c-.03.03-.08.05-.14.06-.06.02-.16.03-.26.04-.11.01-.25.02-.42.02s-.31,0-.42-.02c-.11-.01-.2-.02-.27-.04-.07-.01-.11-.04-.14-.06-.03-.03-.04-.05-.04-.09v-6.05s.01-.06.04-.09c.03-.03.08-.05.15-.06.07-.01.16-.03.27-.04.11,0,.25-.01.42-.01s.31,0,.42.01c.11.01.2.03.26.04.07.02.11.04.14.06.03.03.04.06.04.09v6.05Z"/>
        <path class="cls-2" d="m240.81,12.57h0l-1.21,2.72h2.42l-1.21-2.72Zm3.92,4.7c.05.12.09.21.1.28.01.07,0,.12-.05.16-.05.03-.13.06-.26.06-.12.01-.29.02-.51.02s-.4,0-.52-.01c-.13,0-.22-.01-.29-.03-.07-.02-.11-.03-.14-.06-.03-.03-.05-.06-.07-.11l-.57-1.29h-3.21l-.54,1.25s-.04.08-.07.12c-.03.03-.08.06-.14.07-.07.02-.16.03-.27.04-.12,0-.27.01-.46.01-.2,0-.36,0-.47-.02-.12-.01-.19-.04-.24-.07-.04-.04-.06-.09-.04-.16.01-.07.04-.16.1-.28l2.63-5.68c.03-.06.05-.1.09-.14.04-.04.09-.06.17-.08.08-.02.18-.03.32-.03.14,0,.32,0,.54,0,.26,0,.47,0,.62,0,.15,0,.27.02.36.03.09.02.15.04.18.08.04.04.07.08.1.15l2.64,5.68Z"/>
      </g>
      <g>
        <path class="cls-2" d="m58.53,26.97h0c0-.52-.12-.94-.36-1.27-.24-.33-.54-.58-.89-.74-.35-.16-.73-.26-1.11-.3-.39-.04-.79-.06-1.21-.06h-1.7v4.99h1.79c.64,0,1.17-.06,1.6-.19.43-.13.78-.31,1.05-.54.27-.23.48-.51.62-.83.14-.32.21-.67.21-1.05m4.17-.22c0,.82-.17,1.56-.52,2.19-.34.64-.84,1.17-1.5,1.61-.66.44-1.46.77-2.42,1-.96.23-2.08.34-3.37.34h-1.64v4.7c0,.07-.03.14-.1.2-.07.06-.17.11-.33.15-.15.04-.35.07-.61.09-.25.02-.58.04-.97.04s-.7-.01-.96-.04c-.26-.02-.46-.05-.61-.09-.15-.04-.26-.09-.32-.15-.06-.06-.09-.13-.09-.2v-13.25c0-.36.12-.62.37-.8.25-.18.57-.27.98-.27h4.63c.46,0,.91.01,1.33.04.42.02.92.08,1.51.17.59.09,1.18.25,1.78.48.6.23,1.11.53,1.54.89.42.36.75.78.97,1.26.22.48.34,1.02.34,1.62"/>
        <path class="cls-2" d="m69.79,25.09h-.02l-2.77,6.26h5.56l-2.77-6.26Zm9.01,10.8c.12.27.2.49.23.65.03.16-.01.28-.12.36-.11.08-.31.13-.59.15-.28.02-.67.03-1.17.03s-.92,0-1.2-.02c-.29,0-.51-.03-.66-.07-.15-.03-.26-.08-.32-.14-.06-.06-.11-.14-.15-.24l-1.32-2.96h-7.37l-1.24,2.88c-.04.11-.09.19-.16.27-.07.07-.17.13-.32.17-.15.04-.35.07-.62.08-.27.02-.62.02-1.06.02-.46,0-.83-.01-1.09-.04-.26-.02-.44-.08-.55-.16-.1-.09-.14-.21-.11-.37.03-.16.11-.37.23-.64l6.05-13.07c.06-.13.13-.23.21-.31.08-.08.21-.14.39-.18.18-.04.42-.07.74-.08.31,0,.73-.02,1.24-.02.6,0,1.07,0,1.43.02.35.01.63.04.83.08.2.04.34.11.42.19.09.08.16.2.22.34l6.06,13.05Z"/>
        <path class="cls-2" d="m92.21,32.59c0,.77-.19,1.45-.58,2.04-.39.59-.91,1.07-1.56,1.46-.66.39-1.43.68-2.31.88-.88.2-1.82.3-2.82.3-.68,0-1.31-.04-1.89-.13-.58-.08-1.09-.18-1.54-.3-.44-.12-.82-.24-1.12-.37-.3-.13-.51-.24-.64-.34-.13-.1-.23-.24-.28-.43-.06-.19-.08-.45-.08-.8,0-.23,0-.43.03-.59.02-.16.05-.29.1-.39.05-.1.11-.17.18-.21.08-.04.17-.06.27-.06.14,0,.34.06.6.19.26.12.59.26.99.41.4.15.89.29,1.45.42.56.13,1.21.19,1.95.19.48,0,.92-.04,1.3-.13.38-.09.71-.21.98-.37.27-.16.47-.36.62-.59.14-.24.21-.5.21-.79,0-.33-.12-.62-.36-.86-.24-.24-.56-.45-.95-.64-.39-.18-.83-.36-1.33-.52-.5-.17-1.01-.34-1.53-.52-.53-.18-1.04-.39-1.53-.62-.5-.23-.94-.51-1.33-.83-.39-.32-.7-.7-.95-1.14-.24-.44-.36-.97-.36-1.58,0-.71.17-1.33.52-1.86.35-.53.82-.98,1.41-1.33.59-.35,1.29-.62,2.09-.79.8-.17,1.66-.26,2.56-.26.46,0,.93.03,1.39.08.47.05.9.13,1.3.22.4.09.76.19,1.08.31.31.11.52.21.62.28.1.08.17.14.2.19.04.05.07.12.09.21.02.09.04.2.05.33,0,.13.01.3.01.49,0,.22,0,.41-.02.56-.02.15-.04.28-.08.37-.04.1-.09.17-.15.22-.06.04-.15.07-.26.07s-.29-.05-.53-.16c-.24-.1-.54-.22-.89-.35-.35-.12-.76-.24-1.23-.34-.46-.1-.97-.15-1.53-.15-.44,0-.81.04-1.14.12-.32.08-.59.19-.81.33-.22.14-.38.31-.49.5-.11.2-.16.41-.16.63,0,.33.12.61.36.85.24.24.55.45.95.64.4.18.85.36,1.36.52.51.17,1.02.34,1.55.52.52.18,1.04.39,1.54.62.51.23.96.51,1.35.83.39.32.71.7.96,1.14.24.44.36.95.36,1.54"/>
        <path class="cls-2" d="m107.86,34.77c0,.19,0,.35-.02.49-.02.13-.04.25-.07.34-.03.09-.07.18-.12.25-.05.07-.13.14-.24.23-.11.09-.33.2-.65.33-.32.14-.71.27-1.17.39-.46.13-.99.23-1.58.31-.59.08-1.23.12-1.92.12-1.34,0-2.56-.15-3.64-.47-1.08-.31-2-.77-2.76-1.39-.76-.62-1.34-1.39-1.74-2.32-.4-.92-.61-2-.61-3.23s.22-2.37.67-3.34c.44-.97,1.07-1.79,1.86-2.45.8-.66,1.76-1.16,2.87-1.5,1.12-.34,2.35-.51,3.69-.51.55,0,1.07.03,1.58.1.51.07.97.15,1.4.26.43.11.82.24,1.16.38.34.14.58.27.72.37.14.1.23.19.28.26.05.07.09.16.12.26.03.1.05.23.07.38.01.14.02.32.02.54,0,.23-.01.42-.03.58-.02.16-.06.29-.11.39-.05.1-.11.17-.18.22-.07.04-.15.07-.24.07-.15,0-.34-.07-.58-.2-.23-.13-.53-.28-.9-.44-.37-.16-.81-.31-1.32-.44-.51-.13-1.12-.2-1.83-.2-.78,0-1.48.12-2.09.36-.61.24-1.13.58-1.56,1.03-.43.44-.76.98-.98,1.61-.22.63-.33,1.34-.33,2.13,0,.86.12,1.62.36,2.25.24.64.58,1.16,1.02,1.56.44.41.97.72,1.59.92.62.2,1.32.3,2.1.3.71,0,1.32-.06,1.83-.19.52-.12.96-.26,1.33-.41.37-.15.67-.29.91-.41.24-.12.42-.18.56-.18.1,0,.18.01.24.05.06.03.11.09.15.18.04.09.07.22.09.38.02.16.03.38.03.66"/>
        <path class="cls-2" d="m125.78,31.52c0,.9-.18,1.71-.53,2.42-.35.71-.88,1.32-1.56,1.81-.69.49-1.54.87-2.55,1.13-1.01.26-2.17.39-3.49.39-1.24,0-2.34-.12-3.32-.35-.98-.23-1.81-.58-2.49-1.05-.68-.47-1.19-1.06-1.55-1.76-.36-.7-.54-1.52-.54-2.47v-8.96c0-.07.03-.14.09-.2.06-.06.17-.11.33-.15.16-.04.36-.07.61-.09.25-.02.58-.03.97-.03s.7.01.96.03c.25.02.46.05.61.09.15.04.26.09.33.15.06.06.1.13.1.2v8.7c0,.58.09,1.09.29,1.52.19.43.47.78.83,1.07.36.28.79.49,1.29.63.5.14,1.06.21,1.68.21s1.19-.07,1.68-.22c.5-.14.91-.35,1.26-.63.34-.28.61-.62.8-1.02.19-.41.28-.87.28-1.38v-8.87c0-.07.03-.14.09-.2.06-.06.17-.11.32-.15.15-.04.36-.07.61-.09.26-.02.58-.03.96-.03s.7.01.95.03c.25.02.45.05.6.09.15.04.26.09.32.15.06.06.09.13.09.2v8.83Z"/>
        <path class="cls-2" d="m135.31,25.09h-.02l-2.78,6.26h5.56l-2.77-6.26Zm9.01,10.8c.12.27.2.49.23.65.03.16-.01.28-.12.36-.11.08-.31.13-.59.15-.29.02-.67.03-1.17.03s-.92,0-1.21-.02c-.29,0-.51-.03-.66-.07-.15-.03-.26-.08-.32-.14-.06-.06-.11-.14-.15-.24l-1.32-2.96h-7.37l-1.24,2.88c-.04.11-.09.19-.16.27-.06.07-.17.13-.32.17-.15.04-.35.07-.62.08-.27.02-.62.02-1.05.02-.47,0-.83-.01-1.09-.04-.26-.02-.45-.08-.55-.16-.1-.09-.13-.21-.11-.37.03-.16.11-.37.23-.64l6.05-13.07c.06-.13.13-.23.21-.31.08-.08.21-.14.39-.18.18-.04.42-.07.74-.08.31,0,.73-.02,1.24-.02.6,0,1.07,0,1.43.02.36.01.63.04.83.08.2.04.34.11.42.19.09.08.16.2.22.34l6.06,13.05Z"/>
        <path class="cls-2" d="m156.66,35.75c0,.23-.01.42-.04.57-.02.16-.06.29-.11.39-.05.1-.11.18-.19.22-.07.05-.16.07-.26.07h-8.99c-.33,0-.61-.07-.84-.22-.23-.15-.34-.39-.34-.72v-13.37c0-.07.03-.14.1-.2.07-.06.17-.11.33-.15.15-.04.36-.07.61-.09.26-.02.58-.03.96-.03s.72.01.97.03c.25.02.46.05.61.09.15.04.26.09.33.15.07.06.1.13.1.2v11.85h6.17c.1,0,.19.02.26.06.08.04.14.11.19.2.05.1.09.22.11.37.03.16.04.35.04.57"/>
        <path class="cls-2" d="m173.96,32.69h0c0-.34-.08-.65-.23-.92-.15-.27-.37-.49-.66-.68-.3-.18-.67-.32-1.12-.42-.46-.1-1.05-.15-1.77-.15h-2.37v4.19h2.88c.55,0,1.02-.04,1.4-.13.38-.09.71-.22.99-.39.28-.17.49-.38.65-.64.16-.26.24-.55.24-.87m-1.02-6.3h0c0-.3-.06-.56-.18-.79-.12-.24-.3-.43-.54-.59-.24-.16-.55-.28-.92-.36-.37-.08-.86-.13-1.48-.13h-2.02v3.82h2.23c.58,0,1.04-.05,1.38-.15.34-.1.63-.24.86-.42.23-.18.4-.38.51-.63.11-.24.17-.49.17-.76m5.16,6.2c0,.53-.1,1-.29,1.42-.19.43-.46.8-.8,1.13-.34.33-.74.61-1.21.84-.47.24-.99.43-1.56.58-.57.16-1.17.26-1.81.34-.64.07-1.36.11-2.15.11h-5.22c-.33,0-.61-.07-.84-.22-.23-.15-.34-.39-.34-.72v-12.84c0-.33.11-.57.34-.72.23-.15.51-.22.84-.22h4.93c1.2,0,2.22.08,3.05.23.83.15,1.54.38,2.11.69.57.31,1.01.7,1.31,1.17.3.47.45,1.02.45,1.66,0,.35-.06.69-.18,1.01-.12.31-.3.6-.53.86-.23.26-.52.49-.86.68-.34.2-.72.36-1.16.48.56.08,1.07.21,1.54.4.47.19.88.44,1.23.73.35.3.63.65.83,1.05.2.4.3.85.3,1.35"/>
        <path class="cls-2" d="m189.57,26.63h0c0-.49-.15-.9-.44-1.23-.29-.33-.77-.57-1.44-.7-.2-.04-.43-.07-.69-.09-.26-.02-.61-.04-1.07-.04h-1.79v4.18h2.03c.56,0,1.06-.05,1.49-.15.42-.1.78-.25,1.06-.43.28-.18.5-.41.64-.66.14-.26.21-.55.21-.87m5.14,9.99c0,.08-.02.15-.06.21-.04.06-.14.1-.29.14-.15.04-.37.06-.67.08-.29.02-.69.02-1.2.02-.43,0-.76,0-1.02-.02-.25-.01-.45-.04-.6-.08-.15-.04-.25-.09-.31-.16-.06-.06-.11-.14-.15-.23l-1.76-3.29c-.21-.37-.42-.7-.62-.99-.2-.29-.43-.53-.67-.72-.25-.19-.53-.34-.86-.44-.32-.1-.7-.15-1.12-.15h-1.24v5.61c0,.07-.03.14-.1.2-.07.06-.17.11-.33.15-.15.04-.35.07-.61.09-.25.02-.58.04-.97.04s-.7-.01-.96-.04c-.26-.02-.46-.05-.61-.09-.15-.04-.26-.09-.32-.15-.06-.06-.09-.13-.09-.2v-13.37c0-.33.11-.57.34-.72.23-.15.51-.22.84-.22h5.08c.52,0,.94,0,1.27.02.33.02.64.03.91.06.79.08,1.5.23,2.13.43.63.2,1.17.48,1.61.8.44.33.77.72,1.01,1.17.23.45.35.97.35,1.55,0,.49-.08.94-.25,1.35-.17.41-.41.77-.74,1.09-.32.32-.72.59-1.2.83-.48.23-1.02.43-1.62.57.29.11.57.24.83.39.26.15.5.34.73.55.23.22.44.46.64.74.2.28.4.59.59.94l1.65,2.9c.15.29.25.5.3.63.05.13.08.23.08.31"/>
        <path class="cls-2" d="m204.79,25.09h-.01l-2.78,6.26h5.56l-2.78-6.26Zm9.01,10.8c.12.27.2.49.23.65.03.16-.01.28-.12.36-.11.08-.31.13-.59.15-.28.02-.67.03-1.17.03s-.92,0-1.2-.02c-.29,0-.51-.03-.66-.07-.15-.03-.26-.08-.32-.14-.06-.06-.11-.14-.15-.24l-1.32-2.96h-7.37l-1.24,2.88c-.04.11-.09.19-.16.27-.07.07-.17.13-.32.17-.15.04-.35.07-.62.08-.27.02-.62.02-1.06.02-.47,0-.83-.01-1.09-.04-.26-.02-.44-.08-.55-.16-.1-.09-.14-.21-.11-.37.03-.16.11-.37.23-.64l6.05-13.07c.06-.13.13-.23.21-.31.08-.08.21-.14.39-.18.18-.04.42-.07.74-.08.31,0,.73-.02,1.24-.02.6,0,1.07,0,1.43.02.35.01.63.04.83.08.2.04.34.11.43.19.08.08.16.2.22.34l6.06,13.05Z"/>
        <path class="cls-2" d="m222.6,36.48c-.05.13-.12.23-.2.31-.08.08-.21.14-.39.18-.18.04-.43.07-.74.08-.31.01-.72.02-1.23.02-.4,0-.75,0-1.04,0-.29,0-.53-.01-.74-.03-.2-.01-.37-.04-.49-.07-.13-.03-.23-.07-.32-.11-.09-.05-.15-.1-.2-.17-.05-.06-.09-.15-.13-.24l-5.84-13.06c-.12-.28-.19-.49-.22-.65-.02-.16.03-.28.15-.36.12-.08.34-.13.64-.15.3-.02.73-.03,1.28-.03.46,0,.83,0,1.09.02.26.02.46.04.6.08.14.04.24.09.3.17.05.07.11.17.16.28l4.78,11.36h.01l4.69-11.3c.04-.13.09-.23.15-.31.06-.08.16-.14.31-.19.15-.05.36-.08.63-.09.27-.01.65-.02,1.12-.02s.83.01,1.08.03c.26.02.44.08.53.16.09.09.12.21.09.37-.03.16-.11.37-.23.64l-5.85,13.07Z"/>
        <path class="cls-2" d="m241.95,29.63h0c0-.78-.08-1.48-.24-2.11-.16-.63-.44-1.17-.83-1.63-.39-.45-.91-.8-1.55-1.05-.65-.24-1.46-.37-2.43-.37s-1.8.14-2.46.42c-.66.28-1.19.65-1.59,1.11-.41.46-.69,1-.86,1.62-.17.62-.25,1.27-.25,1.96,0,.8.08,1.53.24,2.17.16.64.43,1.19.82,1.64.38.46.9.8,1.55,1.04.65.24,1.46.36,2.44.36s1.8-.14,2.46-.41c.66-.27,1.19-.65,1.59-1.12.4-.47.69-1.02.86-1.64.16-.62.25-1.29.25-2m4.18-.16c0,1.22-.2,2.31-.6,3.28-.4.96-1.01,1.78-1.8,2.45-.8.67-1.79,1.18-2.96,1.54-1.18.35-2.54.53-4.09.53s-2.86-.15-4-.45c-1.14-.3-2.09-.75-2.84-1.37-.76-.62-1.33-1.4-1.71-2.35-.38-.95-.57-2.07-.57-3.37,0-1.19.2-2.26.61-3.21.4-.95,1.01-1.76,1.8-2.43.8-.67,1.79-1.18,2.97-1.54,1.18-.36,2.55-.53,4.1-.53s2.8.15,3.94.44c1.14.3,2.09.75,2.85,1.37.76.61,1.34,1.39,1.73,2.33.39.94.58,2.04.58,3.32"/>
      </g>
      <path class="cls-2" d="m18.55,26.5s1.87.56,3.51,3.79c0,0,2.14-3.09,3.62-3.93l-.38,5.99s-2.69,1.87-3.02,2.43c0,0-2.52-2.15-3.13-2.38l-.6-5.89Z"/>
      <path class="cls-2" d="m16.96,27.02l1.48.75s.38,4.96,0,5.24c0,0,3.35,1.5,3.4,1.92,0,0-3.73-1.78-4.5-1.64,0,0,.44-4.72-.38-6.27"/>
      <path class="cls-2" d="m27.4,27.02l-1.48.75s-.38,4.96,0,5.24c0,0-3.35,1.5-3.4,1.92,0,0,3.73-1.78,4.5-1.64,0,0-.44-4.72.38-6.27"/>
      <path class="cls-2" d="m15.81,28.56h1.1s.44,3.98-.22,4.86c0,0,4.72,1.21,4.89,1.87,0,0-3.46-1.36-5.93-.98,0,0,1.21-4.16.22-5.61l-.06-.14Z"/>
      <path class="cls-2" d="m28.62,28.52h-1.1s-.44,3.98.22,4.86c0,0-4.72,1.22-4.89,1.87,0,0,3.46-1.35,5.93-.98,0,0-1.21-4.16-.22-5.61l.05-.14Z"/>
      <path class="cls-3" d="m22.32,21.32c5,0,9.05,4.05,9.05,9.05s-4.05,9.05-9.05,9.05-9.05-4.05-9.05-9.05,4.06-9.05,9.05-9.05m0-.9c5.5,0,9.96,4.46,9.96,9.96s-4.46,9.95-9.96,9.95-9.96-4.46-9.96-9.95,4.46-9.96,9.96-9.96"/>
      <g>
        <path class="cls-2" d="m24.47,50.4s-.07-.02-.12-.02-.08,0-.11.02c-.03.02-.06.04-.08.08-.02.04-.03.09-.03.16v.13c0,.06.01.11.03.15.02.04.05.06.08.08.03.02.07.02.11.02s.08,0,.12-.02c.03-.02.06-.04.08-.08s.03-.08.03-.15v-.13c0-.07-.01-.12-.03-.16-.02-.04-.05-.07-.08-.08Z"/>
        <path class="cls-2" d="m28.86,9.12c.96-3.02.33-3.03.33-3.03-.21.27-1.95.79-1.95.79.43-1.55-.79-3.72-.79-3.72-.36.91-2.23,1.19-2.23,1.19-.61-2.35-1.91-4.35-1.91-4.35-2.95,1.9-3.03,4.26-3.03,4.26-1.01.15-1.95-.91-1.95-.91-.98,1.31-.18,4.12-.18,4.12-.76-.61-2.3-.44-2.3-.44-.18.85-.1,1.62.1,2.31C-8.62,17.46-2.92,52.83,22.23,52.83s30.79-36.22,6.63-43.71Zm-12.58-.54s1.95.37,1.95.68c0,0-.93-2.92.08-3.63,0,0,1.03,1.83,1.79,1.59,0,0-.96-4.7,2.03-5.66,0,0-.13,1.08.8,2.23,0,0,1.43,1.15.78,2.93,0,0,.7-.18,1.04-1.02,0,0,.63-1.11,1.36-.87,0,0,.69,2.59-.2,4.37,0,0,2.18-1.17,2.19-1.5,0,0,.37.98-.73,2.14,0,0-1.03,1.15-.85,1.45h-9.37s-1.27-1.29-.88-2.71Zm5.94,31.65c-5.35,0-9.69-4.34-9.69-9.69s4.34-9.69,9.69-9.69,9.69,4.34,9.69,9.69-4.34,9.69-9.69,9.69Zm1.52-.06l-.27,2.43c-.28.03-.56.05-.82.05l.02-2.38c.36-.02.71-.05,1.06-.11Zm-1.97,2.49c-.19,0-.36-.02-.53-.03l-.28-2.41c.26.03.53.05.8.07v2.38Zm2.78-23.41v-2.05h1.04c.87,0,.47,2.07.47,2.07l-.24,2.2c-.92-.36-1.91-.59-2.95-.66l.03-3.61h1.31v2.07c.26.33.34-.02.34-.02Zm-6.47-3.77c-.38,0-.7-.28-.7-.63s.31-.63.7-.63h8.17c.38,0,.69.28.69.63s-.31.63-.69.63h-8.17Zm3.63,5.32c-1.03.05-2.02.27-2.94.62l-.25-2.15s-.34-2.07.65-2.07h2.53v3.6Zm-4.06-1.32c.1.64.21,1.42.33,2.28-3.26,1.58-5.51,4.91-5.51,8.78,0,4.6,3.18,8.44,7.46,9.48.08.81.15,1.61.23,2.42-5.62-1.02-9.89-5.93-9.89-11.85,0-5,3.04-9.29,7.38-11.11Zm7.05,20.5c4.2-1.09,7.29-4.9,7.29-9.44,0-3.79-2.16-7.07-5.32-8.69.1-.91.19-1.72.27-2.39,4.36,1.81,7.43,6.11,7.43,11.13,0,5.93-4.29,10.85-9.93,11.85.09-.82.17-1.65.26-2.47Zm2-26.43l-9.06-.02s-1.18-1.01.08-1.36h8.93s1.05,0,.05,1.38Zm-6.26,38.86h-.4v-1.77h-.31v-.26c.08,0,.14,0,.19-.02.05-.02.09-.04.12-.07.03-.03.06-.06.08-.09.02-.04.04-.07.05-.11h.27v2.33Zm1.65-.58c0,.19-.05.35-.15.45-.1.1-.25.16-.46.16-.13,0-.24-.02-.33-.07-.09-.05-.16-.11-.2-.2-.05-.09-.07-.19-.07-.32v-.06h.38v.08c0,.08.02.14.06.18.04.04.09.05.15.05.05,0,.09,0,.12-.02.03-.02.06-.05.08-.09.02-.04.03-.1.03-.17v-.42c-.03.07-.08.12-.14.15-.06.04-.14.05-.23.06-.15,0-.26-.05-.33-.14-.07-.09-.11-.22-.11-.39v-.43c0-.12.02-.23.07-.32s.11-.15.2-.2c.09-.05.2-.07.33-.07.13,0,.24.02.33.07.09.05.16.11.2.2.05.09.07.19.07.32v1.19Zm1.43-1.13c0,.12-.02.22-.07.31-.05.08-.12.14-.21.17.1.04.17.1.22.18.04.08.07.19.07.3v.18c0,.13-.02.23-.07.32-.05.09-.11.15-.2.2-.09.05-.2.07-.33.07s-.24-.02-.33-.07c-.09-.05-.15-.11-.2-.2-.05-.09-.07-.19-.07-.32v-.19h.38v.22c0,.08.02.14.06.18.04.04.09.05.15.05.04,0,.08,0,.11-.02.03-.02.06-.04.07-.08.02-.04.03-.09.03-.16v-.18c0-.07,0-.13-.03-.17-.02-.04-.05-.08-.09-.09-.04-.02-.09-.03-.15-.03h-.13v-.33h.15c.05,0,.09,0,.13-.02.03-.02.06-.04.08-.08.02-.04.03-.08.03-.15v-.13c0-.07,0-.12-.03-.16-.02-.04-.04-.07-.07-.08-.03-.02-.07-.02-.11-.02-.06,0-.11.02-.15.05-.04.03-.05.09-.06.18v.15h-.38v-.13c0-.12.02-.23.07-.32.04-.09.11-.15.2-.2.09-.05.2-.07.33-.07.13,0,.24.02.33.07.09.05.15.11.2.2.04.09.07.19.07.32v.06Zm1.46.01c0,.12-.02.21-.06.29-.04.08-.1.14-.18.18.09.05.15.11.19.19.04.08.06.18.06.29v.18c0,.13-.02.23-.07.32-.05.09-.12.15-.21.2-.09.05-.21.07-.34.07s-.25-.02-.34-.07c-.09-.05-.16-.11-.21-.2-.05-.09-.07-.19-.07-.32v-.18c0-.11.02-.21.06-.29.04-.08.1-.15.19-.19-.08-.04-.14-.1-.18-.18-.04-.08-.06-.18-.06-.29v-.07c0-.12.02-.23.07-.32.05-.09.12-.15.21-.2.09-.05.2-.07.34-.07.14,0,.25.02.34.07.09.05.16.11.21.2.05.09.07.19.07.32v.07Zm-2.75-.99C.35,49.71-4.27,18.39,16.59,12.01c.11.11.18.17.18.17-.87.66.05,1.62.05,1.62-.74.62-.12,1.58-.12,1.58-1.5,0,.37,1.81.37,1.81.05,0,.11.11.17.31-.1.04-.2.07-.3.11-.6-.06-1.04-.95-1.04-.95l-2.5,1.46c.34.76.32,1.19.23,1.43-.9.71-1.72,1.53-2.42,2.43-.55.24-1.37-.31-1.37-.31l-1.43,2.52c.64.46.85.82.9,1.07-.44,1.08-.75,2.23-.92,3.43-.36.48-1.34.41-1.34.41l.02,2.9c.78.08,1.15.29,1.32.48.16,1.18.46,2.31.9,3.37-.06.6-.95,1.04-.95,1.04l1.46,2.5c.73-.32,1.14-.32,1.39-.24.72.94,1.56,1.78,2.5,2.51.26.55-.3,1.39-.3,1.39l2.52,1.43c.47-.64.84-.85,1.09-.91,1.08.44,2.22.75,3.42.91.46.37.4,1.33.4,1.33h1.16s1.73-.02,1.73-.02c.08-.76.28-1.13.47-1.31,1.2-.16,2.34-.47,3.42-.91.61.04,1.07.95,1.07.95l2.5-1.46c-.34-.76-.32-1.19-.23-1.42.93-.73,1.77-1.57,2.49-2.5.55-.21,1.34.32,1.34.32l1.43-2.52c-.61-.44-.83-.8-.9-1.05.45-1.11.77-2.29.93-3.52.38-.44,1.31-.38,1.31-.38l-.02-2.9c-.76-.08-1.13-.28-1.31-.46-.17-1.23-.49-2.4-.96-3.5.13-.56.94-.96.94-.96l-1.46-2.5c-.71.32-1.13.32-1.37.25-.72-.92-1.54-1.74-2.47-2.46-.26-.55.3-1.39.3-1.39l-2.52-1.43c-.48.66-.85.86-1.1.91-.14-.06-.28-.1-.42-.16.02-.14.03-.23.03-.23,1.51-1.66.42-1.81.42-1.81.67-1.55-.14-1.57-.14-1.57,1.08-1.16.26-1.63.26-1.63.03-.07.05-.12.08-.19,20.96,6.33,16.51,37.72-5.58,37.72Z"/>
        <path class="cls-2" d="m24.35,51.35c-.07,0-.13.02-.17.06-.04.04-.06.11-.06.2v.22c0,.07.01.12.03.16.02.04.05.07.08.08.03.02.07.02.11.02s.08,0,.12-.02c.03-.02.06-.04.08-.08.02-.04.03-.09.03-.16v-.22c0-.09-.02-.16-.06-.2-.04-.04-.09-.06-.17-.06Z"/>
        <path class="cls-2" d="m21.59,50.4s-.07-.02-.11-.02-.08,0-.11.02c-.03.02-.05.04-.07.07-.02.03-.02.08-.02.13v.42c0,.08.02.14.05.18.04.04.09.05.15.05.07,0,.12-.02.15-.05.03-.04.05-.1.06-.18v-.42c0-.06,0-.1-.03-.13-.02-.03-.04-.06-.07-.07Z"/>
      </g>
      <path class="cls-3" d="m24.2,17.2h.34v2.06c0,.09-.08.17-.17.17s-.17-.08-.17-.17v-2.06Z"/>
      <path class="cls-3" d="m19.99,17.2h.34v2.06c0,.09-.08.17-.17.17s-.17-.08-.17-.17v-2.06Z"/>
      <path class="cls-2" d="m250.6,30.51c-1.87,0-3.39,1.52-3.39,3.39s1.52,3.39,3.39,3.39,3.39-1.52,3.39-3.39-1.52-3.39-3.39-3.39m0,6.1c-1.5,0-2.71-1.21-2.71-2.71s1.21-2.71,2.71-2.71,2.71,1.22,2.71,2.71-1.22,2.71-2.71,2.71"/>
      <path class="cls-2" d="m249.87,35.67h-.46v-3.56h1.35c.62,0,.92.33.92.99,0,.38-.08.57-.35.81.25.2.28.31.3.9.01.48.03.56.15.66v.2h-.52c-.06-.17-.11-.42-.1-.59v-.37c.01-.34-.12-.52-.41-.52h-.88v1.48Zm.85-1.98c.35,0,.49-.16.49-.55,0-.36-.15-.52-.49-.52h-.85v1.07h.85Z"/>
      <rect class="cls-1" x="49.26" y="40.28" width="195.56" height="9.09"/>
      <g>
        <path class="cls-4" d="m81.43,41.85h0c-.02-.06-.06-.12-.1-.16-.05-.05-.11-.09-.19-.11-.05-.02-.12-.03-.2-.03-.13,0-.35,0-.48,0-.08,0-.14.02-.19.03-.07.02-.14.06-.18.11-.04.04-.07.1-.1.16l-1.89,5.23c-.03.09-.05.16-.05.23,0,.11.03.21.11.27.06.06.14.09.24.1.12.02.34.02.46,0,.08,0,.14-.02.19-.05.06-.03.11-.07.15-.12.03-.04.05-.09.07-.14l.41-1.19h2l.43,1.23s.04.08.06.11c.04.05.1.09.17.12.05.02.11.03.19.04.06,0,.14,0,.24,0s.18,0,.24-.01c.1-.01.18-.04.25-.1.08-.07.12-.17.11-.28,0-.07-.02-.14-.05-.23l-1.89-5.23Zm-.11,3.26h-1.29l.64-1.85.65,1.85Z"/>
        <path class="cls-4" d="m88.39,46.38h0c-.03-.07-.06-.12-.11-.16l-.12-.07h-.08c-.12,0-.23.07-.3.13-.06.05-.13.1-.21.16-.08.05-.17.1-.28.15-.19.08-.5.08-.71-.01-.1-.05-.18-.11-.25-.21-.07-.1-.13-.24-.17-.39-.04-.17-.06-.37-.06-.61,0-.45.08-.8.23-1.02.14-.2.33-.29.6-.29.14,0,.26.02.35.06.11.04.2.09.27.14.08.05.14.1.19.14.23.19.48.16.61-.06.05-.08.07-.2.07-.36,0-.06,0-.11,0-.15,0-.05-.01-.1-.03-.15-.02-.05-.04-.09-.06-.13-.02-.03-.05-.07-.1-.12-.05-.05-.11-.1-.21-.16-.09-.06-.19-.11-.31-.15-.11-.04-.23-.08-.36-.1-.4-.08-.85-.04-1.22.11-.26.1-.48.25-.67.45-.19.2-.33.46-.44.77-.1.3-.15.66-.15,1.07,0,.36.04.69.12.97.09.29.21.54.38.74.17.21.38.37.64.48.25.11.53.16.84.16.15,0,.3-.01.44-.04.14-.03.27-.07.39-.11.12-.05.23-.1.33-.16.11-.06.18-.12.23-.17.06-.06.09-.1.11-.14.02-.03.03-.07.04-.11.01-.04.02-.09.02-.14,0-.04,0-.09,0-.15,0-.07,0-.13,0-.17,0-.06-.02-.11-.03-.16Zm-.23.08s0,0,0,0h0,0Z"/>
        <path class="cls-4" d="m93.08,43.36h0s-.02-.07-.03-.1l-.06-.09-.04-.03s-.09-.06-.17-.09c-.05-.02-.1-.03-.17-.05-.06-.01-.12-.02-.18-.03-.19-.02-.32,0-.46.03-.11.03-.22.08-.32.15-.07.05-.14.1-.2.17,0-.04-.02-.08-.05-.11-.03-.05-.07-.08-.13-.12-.05-.03-.11-.05-.19-.06-.1-.01-.28-.01-.37,0-.07,0-.13.02-.18.05-.07.04-.12.08-.15.14-.03.05-.04.11-.04.18v3.92c0,.07.02.14.05.18.04.06.09.1.17.14.05.02.1.03.17.04.05,0,.12.01.2.01s.15,0,.21-.01c.07,0,.13-.02.18-.04.07-.03.12-.07.15-.12.04-.06.06-.13.06-.2v-2.51c.08-.13.16-.24.23-.33.07-.1.14-.17.21-.23.06-.05.11-.08.16-.1.08-.03.17-.03.24-.01.05,0,.09.02.12.03.04.01.07.02.1.03.06.02.12.04.17.04l.15-.02.07-.07s.07-.09.09-.15c.02-.05.02-.1.03-.16,0-.05,0-.11,0-.18v-.17c0-.06,0-.1-.02-.13Z"/>
        <path class="cls-4" d="m98.11,43.59h0c-.16-.19-.37-.35-.62-.46-.48-.22-1.22-.23-1.76,0-.26.11-.49.28-.68.49-.18.21-.33.47-.42.77-.09.29-.14.62-.14.98,0,.38.05.72.14,1,.09.3.24.56.43.76.19.2.43.36.7.46.27.1.58.15.93.15.2,0,.39-.01.56-.04.17-.03.32-.06.46-.1.14-.04.25-.08.34-.12.13-.06.18-.1.21-.13.03-.03.06-.06.07-.1.02-.04.04-.08.05-.14,0-.03.01-.06.01-.09,0-.03,0-.08,0-.12,0-.06,0-.12,0-.16,0-.06-.02-.1-.04-.15-.03-.06-.07-.11-.12-.15l-.11-.05h-.07c-.07,0-.15.02-.25.07-.06.03-.15.06-.25.1-.1.04-.21.07-.35.09-.28.06-.71.06-.96-.04-.13-.05-.23-.12-.3-.22-.08-.1-.14-.21-.17-.35-.02-.09-.04-.19-.05-.29h2.33c.13,0,.25-.04.35-.13.11-.1.17-.24.17-.42v-.13c0-.28-.04-.54-.11-.79-.07-.25-.19-.48-.35-.67Zm-.75,1.14h-1.62s.02-.1.04-.14c.04-.12.1-.22.17-.31.07-.08.15-.15.26-.2.1-.05.22-.08.36-.08.27,0,.47.08.6.23.1.12.16.29.19.5Z"/>
        <path class="cls-4" d="m104.21,41.19s-.09-.03-.16-.04c-.11-.02-.32-.02-.43,0-.06,0-.11.02-.15.04-.11.04-.17.11-.19.16-.03.05-.04.11-.04.17v1.75c-.07-.05-.14-.09-.21-.13-.48-.26-1.12-.22-1.57,0-.24.12-.45.29-.62.51-.16.21-.28.47-.36.78-.08.29-.12.62-.12.97,0,.3.03.59.09.86.06.28.17.54.31.75.15.22.34.4.58.53.24.13.52.2.85.2.3,0,.59-.07.85-.22.1-.05.19-.12.29-.19,0,.06.02.12.06.17.04.06.1.1.17.13.04.02.09.03.15.04.1.01.27.01.37,0,.06,0,.11-.02.15-.04.07-.03.13-.08.17-.14.03-.05.05-.12.05-.18v-5.8c0-.07-.02-.14-.06-.2-.04-.06-.1-.1-.17-.13Zm-.97,3.45v1.4c-.09.1-.17.19-.25.27-.09.09-.18.16-.26.21-.07.05-.14.08-.21.1-.2.06-.41.03-.54-.06-.09-.07-.17-.15-.23-.27-.06-.12-.11-.27-.14-.43-.03-.17-.04-.36-.04-.54,0-.17.02-.34.05-.5.03-.15.08-.29.15-.41.06-.11.14-.2.24-.26.09-.06.2-.09.33-.09.15,0,.29.05.43.15.15.1.3.25.46.44Z"/>
        <path class="cls-4" d="m107.85,43.21c-.04-.06-.09-.1-.16-.13h0s-.1-.04-.18-.05c-.11-.01-.29-.01-.41,0-.07,0-.12.02-.17.04-.08.03-.13.08-.17.14l-.05.11v3.98c0,.07.02.13.05.19.04.06.09.1.16.13.05.02.1.03.17.04.05,0,.12.01.2.01s.15,0,.21-.01c.07,0,.13-.02.18-.05.06-.03.12-.07.15-.12.04-.06.07-.13.07-.2v-3.92l-.02-.13-.04-.06Z"/>
        <path class="cls-4" d="m107.32,41.41c-.24,0-.41.05-.52.16-.11.11-.17.28-.17.52s.05.4.17.51c.11.11.28.16.51.16s.4-.05.52-.16c.11-.11.17-.28.17-.52s-.05-.4-.17-.51c-.11-.11-.28-.16-.51-.16Z"/>
        <path class="cls-4" d="m112.32,44.12c.13,0,.24-.07.31-.19.05-.09.07-.19.07-.34,0-.07,0-.13-.01-.18-.01-.07-.03-.12-.05-.17-.03-.06-.08-.11-.13-.14-.05-.03-.12-.05-.18-.05h-.77v-.69l-.02-.13-.04-.06c-.03-.05-.08-.1-.14-.12-.05-.03-.11-.04-.19-.05-.11-.01-.3-.01-.41,0-.08,0-.14.03-.18.05-.07.03-.13.08-.16.14l-.05.11v.76h-.3c-.06,0-.12.02-.18.04-.06.04-.11.09-.15.16-.02.04-.04.09-.05.15,0,.05-.02.11-.02.18,0,.15.02.26.07.35.07.12.18.19.31.19h.31v2.05c0,.24.02.46.07.65.05.2.14.37.25.51.12.14.27.24.46.31.17.06.37.1.61.1.08,0,.15,0,.23-.01.07,0,.14-.02.21-.04.08-.02.14-.04.21-.07.07-.03.13-.07.17-.11.06-.06.09-.13.12-.22.02-.07.02-.15.02-.26,0-.07,0-.12-.01-.17,0-.05-.02-.09-.03-.12-.03-.1-.1-.15-.14-.17l-.1-.04h-.06c-.06,0-.12.01-.18.04-.02.01-.05.02-.08.03-.03.01-.07.02-.12.04-.03,0-.07.01-.12.01-.17,0-.21-.06-.22-.09-.04-.07-.09-.21-.09-.49v-1.94h.77Z"/>
        <path class="cls-4" d="m117.5,43.41c-.15-.15-.34-.26-.57-.34-.34-.11-.83-.15-1.28-.06-.16.03-.31.07-.44.11-.14.05-.26.1-.37.15-.12.06-.2.12-.25.17-.07.07-.12.15-.14.24-.01.06-.02.14-.02.23,0,.06,0,.11.01.16.01.06.03.12.06.17.03.05.07.1.12.13.12.08.26.09.48-.04.07-.04.15-.08.25-.13.1-.05.21-.09.34-.13.22-.07.56-.07.75,0,.07.03.13.06.18.11s.08.11.1.19c.03.1.04.21.04.34v.07h-.3c-.32,0-.62.03-.87.09-.27.06-.5.15-.7.27-.2.13-.36.29-.47.49-.11.2-.16.43-.16.69,0,.22.04.42.12.6.08.18.19.33.34.46.14.12.31.22.51.28.19.06.4.09.63.09.27,0,.53-.06.77-.18.08-.04.17-.09.25-.14.02.06.05.11.1.15.05.05.12.08.21.09.12.02.35.02.45,0,.08-.02.14-.04.19-.08.08-.06.13-.16.13-.27v-2.64c0-.27-.03-.5-.09-.71-.07-.22-.18-.41-.32-.56Zm-1.95,3.18c-.08-.08-.12-.17-.12-.31,0-.08.01-.15.04-.21.03-.05.07-.1.13-.14.07-.05.16-.09.28-.11.13-.03.28-.04.46-.04h.37v.5c-.14.14-.27.25-.39.33-.27.16-.63.14-.78,0Z"/>
        <path class="cls-4" d="m123.79,41.19s-.09-.03-.16-.04c-.11-.02-.32-.02-.43,0-.06,0-.11.02-.15.04-.11.04-.17.11-.19.15-.03.05-.05.11-.05.17v1.75c-.07-.05-.14-.09-.21-.13-.48-.26-1.12-.22-1.57,0-.24.12-.45.29-.62.51-.16.21-.28.48-.36.77-.08.29-.12.62-.12.97,0,.3.03.59.09.86.06.28.17.54.31.75.15.22.34.4.58.53.24.13.52.2.85.2.3,0,.59-.07.85-.22.1-.05.19-.12.29-.19,0,.06.02.12.06.17.04.06.1.1.17.13.04.02.09.03.15.04.1.01.27.01.37,0,.06,0,.11-.02.15-.04.07-.03.13-.08.17-.14.03-.05.05-.12.05-.18v-5.8c0-.07-.02-.14-.06-.19-.04-.06-.1-.1-.17-.13Zm-.97,3.45v1.4c-.09.1-.17.19-.25.27-.09.09-.18.16-.26.21-.07.05-.14.08-.21.1-.2.06-.41.03-.54-.06-.09-.07-.17-.15-.23-.27-.06-.12-.11-.27-.14-.43-.03-.17-.04-.36-.04-.54,0-.17.02-.34.05-.5.03-.15.08-.29.15-.41.06-.11.14-.2.24-.26.09-.06.2-.09.33-.09.15,0,.29.05.43.15.15.1.3.25.46.44Z"/>
        <path class="cls-4" d="m129.87,43.61c-.18-.21-.42-.37-.69-.48-.54-.22-1.35-.22-1.9.02-.28.12-.52.3-.71.52-.19.22-.33.48-.42.78-.09.29-.13.61-.13.95s.04.67.13.96c.09.29.22.55.41.75.18.21.42.37.69.48.27.11.58.16.93.16s.69-.06.97-.18c.28-.12.52-.3.71-.52.19-.22.33-.48.42-.78.09-.29.14-.61.14-.95s-.04-.67-.13-.95c-.09-.29-.23-.55-.41-.75Zm-.69,1.75c0,.21-.02.4-.06.56-.04.16-.1.29-.18.4-.08.11-.17.18-.29.24-.25.12-.68.11-.91,0-.12-.06-.21-.15-.28-.26-.08-.11-.13-.25-.16-.41-.04-.17-.05-.36-.05-.56s.02-.39.06-.56c.04-.16.1-.3.18-.41.08-.11.17-.19.29-.25.12-.06.27-.09.45-.09.19,0,.35.03.47.1.12.06.21.15.28.26.07.12.13.26.16.42.04.17.05.36.05.55Z"/>
        <path class="cls-4" d="m134.97,45.32c-.11-.1-.24-.19-.38-.26-.13-.06-.25-.12-.38-.17l-.36-.14c-.1-.04-.2-.09-.28-.14-.07-.04-.12-.09-.16-.14-.03-.03-.04-.08-.04-.14,0-.05,0-.09.03-.13.02-.04.04-.07.07-.09.03-.03.08-.05.14-.07.15-.04.39-.04.55,0,.09.03.18.06.24.09.07.03.12.06.16.09.09.06.17.09.24.09l.12-.02.06-.04c.05-.04.09-.09.12-.15.02-.04.03-.09.04-.16,0-.04,0-.1,0-.16s0-.11,0-.15l-.02-.09s-.02-.09-.05-.13c-.03-.05-.07-.09-.12-.13-.04-.03-.1-.06-.17-.1-.07-.04-.15-.07-.25-.1-.09-.03-.2-.05-.31-.07-.38-.06-.77-.03-1.06.08-.21.07-.38.17-.52.3-.15.13-.26.28-.33.46-.07.17-.11.35-.11.53,0,.21.04.39.11.55.07.15.16.28.28.4.11.11.23.19.37.27.13.07.25.13.38.18.12.05.25.1.36.14.1.04.19.08.27.13.07.04.12.09.16.14.02.03.04.08.04.13,0,.07-.01.13-.03.17-.02.04-.05.08-.09.11-.05.03-.11.06-.18.08-.19.05-.45.04-.63-.02-.11-.03-.21-.07-.29-.11-.08-.04-.16-.08-.21-.12-.11-.07-.19-.1-.27-.1l-.12.02-.06.03s-.1.08-.14.17c-.02.04-.03.09-.03.14,0,.05-.01.1-.01.17,0,.11,0,.2.03.28.03.1.07.18.14.23.05.04.11.09.2.13.08.04.18.08.29.12.11.04.24.07.37.09.14.02.29.04.44.04.25,0,.48-.03.69-.09.22-.06.41-.16.57-.29.17-.13.29-.29.38-.48.09-.19.13-.4.13-.64,0-.2-.04-.38-.11-.54-.07-.15-.16-.28-.28-.39Z"/>
        <path class="cls-4" d="m144.13,43.59h0c-.16-.19-.37-.35-.62-.46-.48-.22-1.22-.23-1.76,0-.26.11-.49.28-.68.49-.18.21-.33.47-.42.77-.09.29-.14.62-.14.98s.05.71.14,1c.1.3.24.56.43.76.19.2.43.36.7.46.27.1.58.15.93.15.2,0,.39-.01.56-.04.17-.03.32-.06.46-.1.14-.04.25-.08.34-.12.13-.06.18-.1.21-.13.03-.03.06-.07.07-.1.02-.04.04-.08.05-.14,0-.03.01-.06.01-.09,0-.03,0-.08,0-.12,0-.06,0-.12,0-.16,0-.06-.02-.1-.04-.15-.03-.06-.07-.11-.13-.15l-.11-.05h-.07c-.07,0-.15.02-.25.07-.06.03-.15.06-.25.1-.1.04-.21.07-.35.09-.28.06-.71.06-.96-.04-.13-.05-.23-.12-.3-.22-.08-.1-.14-.21-.17-.36-.02-.09-.04-.19-.05-.29h2.33c.13,0,.25-.04.35-.13.11-.1.17-.24.17-.42v-.13c0-.28-.04-.54-.11-.79-.07-.25-.19-.48-.35-.67Zm-.75,1.14h-1.62s.02-.1.04-.14c.04-.12.1-.22.17-.31.07-.08.15-.15.26-.2.1-.05.22-.08.36-.08.27,0,.47.08.6.23.1.12.17.29.19.5Z"/>
        <path class="cls-4" d="m150.12,43.55h0c-.13-.18-.31-.32-.52-.43-.4-.2-1-.24-1.54.04-.1.05-.21.12-.31.2,0-.06-.02-.11-.05-.15-.03-.05-.07-.09-.13-.12-.05-.03-.11-.05-.19-.06-.1-.01-.28-.01-.37,0-.07,0-.13.02-.18.05-.07.04-.12.08-.15.14-.03.05-.04.11-.04.17v3.92c0,.07.02.13.05.18.04.06.09.1.17.14.05.02.1.03.17.04.11.01.31.01.41,0,.07,0,.13-.02.18-.05.06-.03.12-.07.15-.12.04-.06.07-.13.07-.2v-2.65c.16-.2.32-.35.46-.45.25-.18.5-.17.66-.09.07.03.12.08.17.15.05.08.09.17.12.28.03.12.05.28.05.48v2.29c0,.08.02.15.06.2.04.05.09.09.15.12.05.02.1.04.18.05.05,0,.12.01.21.01s.15,0,.2-.01c.07,0,.13-.02.18-.05.06-.03.12-.07.15-.12.04-.06.07-.13.07-.2v-2.39c0-.3-.03-.56-.08-.77-.05-.23-.15-.43-.28-.61Z"/>
        <path class="cls-4" d="m159.05,41.85h0c-.02-.06-.05-.12-.1-.16-.05-.05-.11-.09-.19-.11-.05-.02-.12-.03-.2-.03-.13,0-.35,0-.48,0-.08,0-.14.02-.19.03-.07.02-.14.06-.18.11-.04.04-.07.1-.1.16l-1.89,5.23c-.03.09-.05.16-.05.23,0,.11.03.21.11.28.06.06.14.09.24.1.12.02.34.02.46,0,.08,0,.14-.03.19-.05.06-.03.11-.07.15-.12.03-.04.06-.09.07-.14l.41-1.19h2l.43,1.23s.04.08.07.11c.04.05.1.09.17.12.05.02.11.03.19.04.06,0,.14,0,.24,0s.18,0,.24-.01c.1-.01.19-.04.25-.1.08-.07.12-.17.11-.28,0-.06-.02-.14-.05-.23l-1.89-5.23Zm-.11,3.26h-1.28l.64-1.85.65,1.85Zm-.11-3.18h0,0Z"/>
        <path class="cls-4" d="m163.74,41.18s-.11-.04-.18-.05c-.11-.01-.3-.01-.41,0-.07,0-.13.02-.17.04-.08.03-.13.08-.17.14-.03.05-.05.12-.05.18v5.81c0,.07.02.14.05.18.04.06.09.1.17.14.05.02.1.03.17.04.05,0,.12.01.2.01s.15,0,.21-.01c.07,0,.13-.02.18-.04.07-.03.12-.07.15-.12.04-.06.06-.13.06-.2v-5.81c0-.07-.02-.14-.06-.2-.04-.05-.09-.1-.16-.13Z"/>
        <path class="cls-4" d="m168.36,44.12c.13,0,.24-.07.31-.19.05-.09.07-.19.07-.34,0-.07,0-.13-.01-.18-.01-.06-.03-.12-.05-.17-.03-.06-.08-.11-.14-.15-.05-.03-.12-.05-.18-.05h-.77v-.69l-.02-.13-.04-.06c-.03-.05-.08-.1-.14-.12-.05-.03-.11-.04-.19-.05-.11-.01-.3-.01-.41,0-.08,0-.14.03-.18.05-.07.03-.13.08-.16.14l-.05.11v.76h-.3c-.06,0-.12.02-.18.04-.06.04-.12.09-.15.16-.02.04-.04.09-.05.15-.01.05-.02.11-.02.19,0,.15.02.26.07.34.07.12.18.19.31.19h.31v2.05c0,.25.02.46.07.65.05.2.14.37.25.51.12.14.27.24.46.31.17.06.37.1.61.1.08,0,.15,0,.23-.01.07,0,.14-.02.21-.04.08-.02.14-.04.2-.06.07-.03.13-.07.17-.11.06-.06.1-.13.12-.22.02-.07.02-.15.02-.26,0-.07,0-.12-.01-.17,0-.05-.02-.09-.03-.13-.04-.09-.1-.14-.14-.17l-.1-.04h-.06c-.06,0-.12.01-.18.04-.02.01-.05.02-.08.03-.03.01-.07.02-.12.04-.03,0-.07.01-.12.01-.17,0-.21-.06-.22-.09-.04-.07-.09-.21-.09-.49v-1.94h.77Z"/>
        <path class="cls-4" d="m173.54,43.41c-.15-.15-.34-.26-.57-.34-.34-.11-.83-.15-1.29-.06-.16.03-.31.07-.44.11-.14.05-.26.1-.37.15-.12.06-.2.12-.26.17-.07.07-.12.15-.14.23-.02.06-.02.13-.02.23,0,.06,0,.11.01.16.01.06.03.12.06.17.03.06.07.1.12.13.12.08.26.09.47-.04.07-.04.15-.08.25-.13.1-.05.21-.09.34-.13.22-.07.56-.07.75,0,.08.03.13.06.18.11.04.05.08.11.1.19.03.1.04.21.04.34v.07h-.3c-.32,0-.62.03-.87.09-.27.06-.51.15-.7.27-.2.13-.36.29-.47.49-.11.2-.16.43-.16.69,0,.22.04.42.12.6.08.18.19.33.34.46.14.12.31.22.51.28.19.06.4.09.63.09.27,0,.53-.06.77-.18.08-.04.17-.09.25-.14.02.06.05.11.1.15.05.05.12.08.21.09.12.02.35.02.46,0,.08-.02.14-.04.19-.08.08-.06.13-.16.13-.27v-2.64c0-.27-.03-.5-.09-.71-.07-.22-.18-.41-.32-.56Zm-1.95,3.18c-.08-.08-.12-.17-.12-.31,0-.08.01-.15.04-.21.03-.05.07-.1.13-.14.07-.05.17-.09.28-.11.13-.03.28-.04.46-.04h.37v.5c-.14.14-.27.25-.39.33-.27.16-.63.14-.78,0Z"/>
        <path class="cls-4" d="m183.95,46.28c-.03-.1-.09-.15-.14-.18l-.11-.05h-.06c-.1,0-.2.04-.32.13-.07.05-.16.11-.27.17-.1.06-.23.11-.38.16-.31.1-.8.1-1.13-.05-.18-.08-.32-.19-.44-.35-.12-.16-.22-.36-.29-.61-.07-.25-.11-.55-.11-.88s.04-.64.11-.89c.07-.25.17-.46.3-.63.12-.16.27-.29.44-.37.34-.16.81-.15,1.09-.05.15.05.28.11.38.17.11.06.19.12.26.17.22.17.39.17.53.06.05-.04.08-.09.11-.15.02-.05.03-.1.04-.16,0-.05.01-.11.01-.18,0-.06,0-.12,0-.16,0-.05-.01-.09-.02-.13-.01-.05-.03-.09-.05-.13-.02-.04-.06-.08-.11-.14-.05-.05-.14-.11-.26-.19-.11-.07-.24-.13-.39-.18-.14-.05-.29-.09-.46-.12-.55-.11-1.14-.04-1.62.17-.34.15-.63.36-.87.64-.24.27-.42.61-.55,1.01-.13.39-.19.83-.19,1.32s.06.91.18,1.28c.12.38.3.7.53.97.23.26.51.47.84.6.32.13.69.2,1.08.2.23,0,.44-.02.64-.06.19-.04.36-.09.51-.16.15-.06.28-.13.38-.19.11-.07.18-.12.22-.16.05-.05.08-.09.1-.13.02-.04.04-.08.05-.12.01-.04.02-.08.02-.14,0-.04,0-.09,0-.14,0-.08,0-.14,0-.19,0-.06-.02-.11-.03-.16Zm-.2.47h0,0Z"/>
        <path class="cls-4" d="m188.86,43.41c-.15-.15-.34-.26-.57-.34-.34-.11-.83-.15-1.28-.06-.16.03-.31.07-.44.11-.14.05-.26.1-.37.15-.12.06-.2.12-.26.17-.07.07-.12.15-.14.24-.01.06-.02.14-.02.23,0,.06,0,.11.01.16.01.06.03.12.06.17.03.05.07.1.12.13.12.08.26.09.48-.04.07-.04.15-.08.25-.13.1-.05.21-.09.34-.13.22-.07.56-.07.75,0,.07.03.13.06.18.11s.08.11.1.19c.03.1.04.21.04.34v.07h-.3c-.32,0-.62.03-.87.09-.27.06-.51.15-.7.27-.2.13-.36.29-.47.49-.11.2-.16.43-.16.69,0,.22.04.42.12.6.08.18.19.33.34.46.14.12.31.22.51.28.19.06.4.09.63.09.27,0,.53-.06.77-.18.08-.04.17-.09.25-.14.02.06.05.11.1.15.05.05.12.08.21.09.11.02.35.02.46,0,.07-.02.14-.04.19-.08.08-.06.13-.16.13-.27v-2.64c0-.27-.03-.5-.09-.71-.07-.22-.18-.41-.32-.56Zm-1.95,3.18c-.08-.08-.12-.17-.12-.31,0-.08.01-.15.04-.21.03-.05.07-.1.13-.14.07-.05.16-.09.28-.11.13-.03.28-.04.46-.04h.37v.5c-.14.14-.27.25-.39.33-.27.16-.62.14-.78,0Z"/>
        <path class="cls-4" d="m192.52,41.18s-.11-.04-.18-.05c-.11-.01-.3-.01-.41,0-.07,0-.13.02-.17.04-.08.03-.13.08-.17.14-.03.05-.05.12-.05.18v5.81c0,.07.02.14.05.18.04.06.09.1.17.14.05.02.1.03.17.04.05,0,.12.01.2.01s.15,0,.21-.01c.07,0,.13-.02.18-.05.06-.03.12-.07.15-.12.04-.06.07-.13.07-.2v-5.81c0-.07-.02-.14-.06-.2-.04-.05-.09-.09-.15-.12Z"/>
        <path class="cls-4" d="m195.61,41.41c-.24,0-.41.05-.52.16-.11.11-.17.28-.17.52s.05.4.17.51c.11.11.28.16.51.16s.4-.05.52-.16c.11-.11.17-.28.17-.52s-.05-.4-.17-.51c-.11-.11-.28-.16-.51-.16Z"/>
        <path class="cls-4" d="m196.15,43.21c-.04-.06-.09-.1-.16-.13h0s-.1-.04-.18-.05c-.1-.01-.29-.01-.41,0-.07,0-.12.02-.17.04-.08.03-.13.08-.17.14l-.05.11v3.98c0,.07.02.13.05.19.04.06.09.1.16.13.05.02.1.03.17.04.05,0,.12.01.2.01s.15,0,.21-.01c.07,0,.13-.02.18-.05.06-.03.12-.07.15-.12.04-.06.07-.13.07-.2v-3.92l-.02-.13-.04-.06Z"/>
        <path class="cls-4" d="m202.08,41.19s-.09-.03-.16-.04c-.11-.02-.32-.02-.43,0-.06,0-.11.02-.15.04-.11.04-.17.11-.19.16-.03.05-.04.11-.04.17v1.75c-.07-.05-.14-.09-.21-.13-.48-.26-1.12-.22-1.57,0-.24.12-.45.29-.62.51-.16.21-.28.47-.36.78-.08.29-.12.62-.12.97,0,.3.03.59.09.86.06.28.17.54.31.75.15.22.34.4.58.53.24.13.52.2.85.2.3,0,.59-.07.85-.22.1-.05.19-.12.29-.19,0,.06.02.12.06.17.04.06.1.1.17.13.04.02.09.03.15.04.1.01.26.01.37,0,.06,0,.11-.02.15-.04.07-.03.13-.08.17-.14.03-.06.05-.12.05-.18v-5.8c0-.07-.02-.14-.06-.19-.04-.06-.1-.1-.17-.13Zm-.97,3.45v1.4c-.09.1-.17.19-.25.27-.09.09-.18.16-.26.21-.07.05-.14.08-.21.1-.2.06-.41.03-.54-.06-.09-.07-.17-.15-.23-.27-.06-.12-.11-.27-.14-.43-.03-.17-.04-.36-.04-.54,0-.17.02-.34.05-.5.03-.15.08-.29.15-.41.06-.11.14-.2.24-.26.09-.06.2-.09.33-.09.15,0,.29.05.43.15.15.1.3.25.46.44Z"/>
        <path class="cls-4" d="m207.6,43.41c-.15-.15-.34-.26-.57-.34-.34-.11-.83-.15-1.29-.06-.16.03-.31.07-.44.11-.14.05-.26.1-.37.15-.12.06-.2.12-.26.17-.07.07-.12.15-.14.23-.02.06-.02.13-.02.23,0,.06,0,.11.01.16.01.06.03.12.06.17.03.06.07.1.12.13.12.08.26.09.47-.04.07-.04.15-.08.25-.13.1-.05.21-.09.34-.13.22-.07.56-.07.75,0,.08.03.13.06.18.11.04.05.08.11.1.19.03.1.04.21.04.34v.07h-.3c-.32,0-.62.03-.87.09-.27.06-.51.15-.7.27-.2.13-.36.29-.47.49-.11.2-.16.43-.16.69,0,.22.04.42.12.6.08.18.19.33.34.46.14.12.31.22.51.28.19.06.4.09.63.09.27,0,.53-.06.77-.18.08-.04.17-.09.25-.14.02.06.05.11.1.15.05.05.12.08.21.09.12.02.35.02.46,0,.08-.02.14-.04.19-.08.08-.06.13-.16.13-.27v-2.64c0-.27-.03-.5-.09-.71-.07-.22-.18-.41-.32-.56Zm-1.95,3.18c-.08-.08-.12-.17-.12-.31,0-.08.01-.15.04-.21.03-.05.07-.1.13-.14.07-.05.17-.09.28-.11.13-.03.28-.04.46-.04h.37v.5c-.14.14-.27.25-.39.33-.27.16-.63.14-.78,0Z"/>
        <path class="cls-4" d="m214.06,41.32c-.04-.06-.1-.1-.17-.13-.04-.02-.09-.03-.16-.04-.11-.02-.32-.02-.43,0-.06,0-.11.02-.15.04-.11.04-.17.11-.19.16-.03.05-.04.11-.04.17v1.75c-.07-.05-.14-.09-.21-.13-.48-.26-1.12-.22-1.57,0-.24.12-.45.29-.62.51-.16.21-.28.47-.36.78-.08.29-.12.62-.12.97,0,.3.03.59.09.86.06.28.17.54.31.75.15.22.34.4.58.53.24.13.52.2.85.2.3,0,.59-.07.85-.22.1-.05.19-.12.29-.19,0,.06.02.12.06.17.04.06.1.1.16.13.04.02.09.03.15.04.1.01.26.01.37,0,.06,0,.11-.02.15-.04.07-.03.13-.08.17-.14.03-.06.05-.12.05-.18v-5.8c0-.07-.02-.14-.06-.2Zm-1.14,3.32v1.4c-.09.1-.17.19-.25.27-.09.09-.18.16-.26.21-.07.05-.14.08-.21.1-.2.06-.41.03-.54-.06-.09-.07-.17-.15-.23-.27-.06-.12-.11-.27-.14-.43-.03-.17-.04-.36-.04-.54,0-.17.02-.34.05-.5.03-.15.08-.29.15-.41.06-.11.14-.2.24-.26.09-.06.2-.09.33-.09.15,0,.29.05.43.15.15.1.3.25.46.44Z"/>
      </g>
    </g>
  </g>
</svg>