<?xml version="1.0" encoding="UTF-8"?>
<svg id="Capa_2" data-name="Capa 2" xmlns="http://www.w3.org/2000/svg" viewBox="0 0 74.95 40.23">
  <defs>
    <style>
      .cls-1 {
        fill: #0cb0be;
        stroke-width: 0px;
      }
    </style>
  </defs>
  <g id="Capa_1-2" data-name="Capa 1">
    <g>
      <path class="cls-1" d="m74.95,20.7c-1.03,1.15-1.99,2.38-3.11,3.45-5.82,5.55-12.29,10.13-19.79,13.15-9.99,4.02-19.96,3.89-29.86-.31-8.18-3.47-15.15-8.68-21.28-15.06-1.22-1.27-1.22-2.37,0-3.64C7.01,11.95,13.93,6.77,22.05,3.3c10.76-4.6,21.48-4.35,32.08.53,7.6,3.5,14.16,8.46,19.93,14.49.34.36.59.81.89,1.22v1.17Zm-37.92,15.17c8.48.38,15.98-6.46,16.39-14.97.43-8.81-6.44-16.15-15.48-16.54-8.49-.37-16,6.49-16.39,14.97-.41,8.83,6.42,16.13,15.48,16.54Zm32.69-15.75c-4.56-4.5-9.55-8.28-15.3-11.27,4.55,7.57,4.54,14.99,0,22.54,5.76-2.99,10.74-6.77,15.3-11.27Zm-49.16,11.27c-4.55-7.57-4.54-14.98,0-22.53-5.76,2.99-10.76,6.77-15.29,11.26,4.55,4.49,9.53,8.27,15.3,11.27Z"/>
      <path class="cls-1" d="m37.37,21.35c1.18-1.18,2.28-2.28,3.43-3.43-.36,0-.72,0-1.07,0-1.29-.04-2.25-.99-2.24-2.21.01-1.19.96-2.15,2.21-2.17,2.19-.02,4.39-.02,6.58,0,1.27.02,2.16.96,2.18,2.27.02,1.88.01,3.75,0,5.63,0,1.33-.9,2.29-2.12,2.33-1.25.04-2.19-.9-2.26-2.27,0-.09-.02-.19-.03-.37-.21.18-.37.3-.52.45-1.36,1.36-2.72,2.72-4.09,4.08-1.39,1.39-2.51,1.4-3.88.02-.8-.81-1.6-1.62-2.48-2.51-.97.99-1.86,1.92-2.77,2.82-.64.63-1.43.83-2.29.53-.83-.29-1.31-.91-1.44-1.78-.11-.72.14-1.35.65-1.86,1.42-1.44,2.84-2.88,4.29-4.29.94-.92,2.2-.92,3.14,0,.93.89,1.81,1.84,2.71,2.76Z"/>
    </g>
  </g>
</svg>