<?xml version="1.0" encoding="UTF-8"?>
<svg id="Capa_2" data-name="Capa 2" xmlns="http://www.w3.org/2000/svg" viewBox="0 0 69.9 69.92">
  <defs>
    <style>
      .cls-1 {
        fill: #0cb0be;
        stroke-width: 0px;
      }
    </style>
  </defs>
  <g id="Capa_1-2" data-name="Capa 1">
    <g>
      <path class="cls-1" d="m45.39,12.25c-6.82-3.65-14.05-4.65-21.49-2.96-8.09,1.83-14.53,6.38-19.15,13.52C1.63,27.64.04,33.16,0,39.21c0,2.08.2,4.11.6,6.04,1.46,7.11,4.96,12.99,10.42,17.48,7.65,6.28,16.4,8.46,26.01,6.48,8.88-1.83,15.72-6.83,20.33-14.86,3.85-6.69,4.95-14.04,3.29-21.84-.59-2.79-1.62-5.51-3.05-8.1-.14-.25-.32-.41-.52-.43-.2-.03-.41.07-.62.27-.94.94-1.88,1.88-2.81,2.82-.31.31-.34.51-.15.92,2.21,4.57,3.01,9.42,2.39,14.42-.54,4.34-2.07,8.25-4.56,11.62-4.68,6.36-11.02,9.89-18.83,10.51-5.24.41-10.23-.76-14.82-3.49-9.47-5.62-14.2-16.6-11.79-27.32,1.69-7.52,6.01-13.22,12.84-16.94,4.29-2.34,9.06-3.32,14.16-2.9,3.11.26,6.12,1.09,8.94,2.47.51.25.66.22,1.05-.17l.26-.25c.81-.8,1.62-1.61,2.42-2.42.18-.18.39-.46.35-.71-.04-.25-.31-.44-.53-.56Z"/>
      <path class="cls-1" d="m35.95,21.68c-3.96-1.16-7.91-1.02-11.72.4-7.08,2.65-11.84,9.52-11.84,17.1,0,4.02,1.14,7.59,3.39,10.62,4.4,5.91,10.35,8.43,17.7,7.47,4.24-.55,7.85-2.48,10.72-5.73,4.46-5.05,5.81-10.97,4.01-17.61-.08-.29-.24-.48-.45-.53-.22-.06-.48.04-.7.26l-1.35,1.35c-.62.62-1.24,1.25-1.87,1.87-.19.19-.26.39-.23.66.18,1.44.14,2.86-.14,4.21-.71,3.48-2.72,6.46-5.66,8.38-2.94,1.92-6.46,2.56-9.92,1.81-4.22-.92-7.7-3.87-9.32-7.9-1.6-3.99-1.13-8.48,1.26-12.01,2.92-4.32,7.13-6.25,12.5-5.74.31.03.52-.04.73-.26.54-.55,1.08-1.09,1.63-1.63.52-.52,1.04-1.04,1.56-1.57.21-.22.31-.46.25-.67-.06-.22-.26-.39-.56-.48Z"/>
      <path class="cls-1" d="m69.71,8.73c.21-.21.22-.36.16-.52-.06-.15-.15-.24-.44-.25-1.02-.03-2.04-.07-3.06-.1l-2.25-.08c-1.23-.04-1.96-.77-2-2.01-.03-.84-.05-1.69-.08-2.53-.03-.92-.06-1.84-.09-2.75,0-.34-.13-.41-.26-.46-.15-.06-.3-.05-.52.17l-.89.89c-2.04,2.04-4.07,4.08-6.12,6.12-1.22,1.22-1.8,2.62-1.77,4.29.02,1.22-.42,2.28-1.31,3.18-6.11,6.11-12.22,12.22-18.33,18.33-.69.69-1.55,1.1-2.56,1.2-2.58.27-4.52,2.44-4.51,5.05v.18c.02.15.03.32.05.49.35,2.48,2.56,4.39,5.05,4.32,2.57-.06,4.69-2.01,4.93-4.54.09-.99.49-1.83,1.16-2.51l4.27-4.27c4.65-4.65,9.3-9.29,13.94-13.95,1.01-1.01,2.18-1.48,3.55-1.47,1.52.03,2.83-.53,3.94-1.64,1.42-1.41,2.83-2.82,4.24-4.24l2.9-2.9Z"/>
    </g>
  </g>
</svg>