<?xml version="1.0" encoding="UTF-8"?>
<svg id="Capa_2" data-name="Capa 2" xmlns="http://www.w3.org/2000/svg" viewBox="0 0 59.18 63.55">
  <defs>
    <style>
      .cls-1 {
        fill: #fff;
      }

      .cls-2 {
        fill: #013549;
      }
    </style>
  </defs>
  <g id="Capa_1-2" data-name="Capa 1">
    <g>
      <path class="cls-2" d="m16.19,33.04v-.42c0-8.56,0-17.13,0-25.69,0-3.22,2.02-5.92,5.11-6.71,3.98-1.02,7.59,1.51,8.22,5.33.08.51.13,1.03.13,1.54.01,2.03,0,4.06,0,6.1v.45c1.85-.88,3.71-1.07,5.61-.32,1.92.75,3.12,2.2,3.85,4.12,1.86-1.05,3.8-1.35,5.83-.64,2.03.72,3.31,2.21,4.02,4.1.8-.27,1.56-.62,2.35-.79,3.27-.67,6.44,1.16,7.47,4.32.24.73.37,1.52.37,2.29.03,5.18.05,10.37,0,15.55-.02,1.86-.18,3.72-.35,5.57-.21,2.25-.71,4.43-1.6,6.52-1.49,3.47-4.01,5.87-7.48,7.32-1.89.79-3.86,1.24-5.88,1.52-2.76.38-5.53.41-8.3.29-2.49-.11-4.93-.42-7.32-1.16-2.12-.66-3.97-1.78-5.75-3.09-2.06-1.52-3.72-3.44-5.52-5.21-4.87-4.79-9.69-9.62-14.55-14.42-.88-.87-1.68-1.78-2.07-2.98-.6-1.83-.35-3.6.45-5.3.71-1.5,1.69-2.78,3.26-3.46,2.63-1.13,5.19-1.04,7.53.72.76.57,1.39,1.32,2.07,2,.82.82,1.64,1.66,2.45,2.49.03-.01.06-.02.1-.03Zm3.61,8.65c-.08-.05-.1-.06-.11-.07-3.15-3.13-6.3-6.25-9.43-9.39-.89-.89-1.92-1.26-3.16-1.08-1.5.21-2.48,1.08-2.99,2.47-.49,1.33-.11,2.49.88,3.48,5.69,5.66,11.39,11.33,17.08,16.99,1.05,1.04,2.1,2.08,3.34,2.89,2.92,1.91,6.2,2.64,9.61,2.89,2.35.17,4.7.16,7.05-.06,1.84-.17,3.65-.49,5.4-1.09,3.57-1.22,6.02-3.55,7.12-7.21.72-2.38.93-4.83.95-7.28.04-5.78.02-11.57,0-17.35,0-.45-.13-.94-.34-1.34-.59-1.15-1.64-1.53-2.87-1.52-1.53.01-2.94,1.33-2.97,2.86-.04,2.19-.02,4.38-.03,6.57,0,.35-.04.7-.02,1.04.07.99-.58,1.81-1.56,1.94-.9.12-1.81-.59-1.94-1.53-.05-.34-.04-.69-.04-1.03,0-3.24,0-6.47,0-9.71,0-.29,0-.58-.04-.86-.32-2-2.77-2.93-4.18-2.41-1.28.47-2.08,1.65-2.08,3.21,0,2.79-.02,5.58.01,8.37,0,.85-.68,1.73-1.57,1.8-1.07.09-1.86-.53-1.99-1.57-.04-.32-.03-.64-.03-.96,0-1.52,0-3.03,0-4.55,0-2.39.01-4.79-.03-7.18-.02-1.24-.66-2.12-1.82-2.59-2.19-.89-4.37.57-4.37,2.93,0,2.84,0,5.68,0,8.51,0,.2-.04.4-.02.6.08,1.04-.69,1.92-1.74,1.98-.99.05-1.86-.81-1.85-1.84,0-1.08,0-2.16,0-3.24,0-6.3,0-12.6,0-18.91,0-2.22-2.01-3.69-4.06-2.99-1.38.47-2.2,1.69-2.2,3.29,0,11.16,0,22.32,0,33.48v.47Z"/>
      <path class="cls-1" d="m19.8,41.69v-.47c0-11.16,0-22.32,0-33.48,0-1.6.81-2.81,2.2-3.29,2.05-.71,4.06.76,4.06,2.99,0,6.3,0,12.6,0,18.91,0,1.08,0,2.16,0,3.24,0,1.02.86,1.89,1.85,1.84,1.05-.05,1.82-.94,1.74-1.98-.02-.2.02-.4.02-.6,0-2.84,0-5.68,0-8.51,0-2.36,2.19-3.83,4.37-2.93,1.16.48,1.8,1.35,1.82,2.59.04,2.39.02,4.79.03,7.18,0,1.52,0,3.03,0,4.55,0,.32,0,.65.03.96.13,1.04.92,1.66,1.99,1.57.9-.07,1.58-.96,1.57-1.8-.03-2.79-.01-5.58-.01-8.37,0-1.56.79-2.74,2.08-3.21,1.4-.51,3.86.41,4.18,2.41.04.28.04.58.04.86,0,3.24,0,6.47,0,9.71,0,.34,0,.69.04,1.03.13.95,1.04,1.65,1.94,1.53.99-.14,1.64-.96,1.56-1.94-.03-.34.02-.69.02-1.04,0-2.19-.01-4.38.03-6.57.03-1.53,1.44-2.85,2.97-2.86,1.24,0,2.28.37,2.87,1.52.21.4.34.89.34,1.34.02,5.78.04,11.57,0,17.35-.02,2.46-.23,4.91-.95,7.28-1.11,3.66-3.56,5.99-7.12,7.21-1.75.6-3.56.92-5.4,1.09-2.35.22-4.7.23-7.05.06-3.42-.25-6.69-.98-9.61-2.89-1.25-.81-2.3-1.85-3.34-2.89-5.69-5.66-11.39-11.33-17.08-16.99-.99-.98-1.37-2.14-.88-3.48.51-1.39,1.49-2.26,2.99-2.47,1.24-.17,2.27.19,3.16,1.08,3.13,3.14,6.29,6.26,9.43,9.39.02.02.04.02.11.07Z"/>
    </g>
  </g>
</svg>